<svg xmlns="http://www.w3.org/2000/svg" width="329" height="216" viewBox="0 0 329 216" fill="none"><metadata><rdf:RDF xmlns:rdf="http://www.w3.org/1999/02/22-rdf-syntax-ns#" xmlns:dc="http://purl.org/dc/elements/1.1/"><rdf:Description><dc:creator>RealFaviconGenerator</dc:creator><dc:source>https://realfavicongenerator.net</dc:source></rdf:Description></rdf:RDF></metadata><path d="M153.778 184.256C156.618 184.926 159.318 185.846 161.618 187.776C164.348 190.066 166.178 192.856 166.948 196.336C167.008 196.586 167.148 196.826 167.248 197.066C167.518 197.596 167.198 198.216 167.498 198.736C167.498 199.526 167.498 200.306 167.498 201.096C167.208 201.636 167.528 202.256 167.248 202.796C166.328 206.156 164.828 209.166 162.168 211.536C159.508 213.906 156.448 215.236 152.898 215.546C144.698 216.266 138.458 210.956 136.378 204.006C136.228 203.516 136.238 202.986 136.178 202.466C135.888 201.806 136.228 201.076 135.928 200.416C136.068 200.076 136.048 199.736 135.928 199.396C136.228 198.746 135.898 198.026 136.168 197.366C136.758 191.466 141.978 185.826 147.948 184.616C148.518 184.506 149.078 184.356 149.638 184.226C151.018 184.026 152.398 184.026 153.778 184.226V184.256Z" fill="white"></path><path d="M17.9283 48.5564C20.9083 49.2864 23.7183 50.3264 26.0783 52.4064C29.0983 55.0664 30.6483 58.4764 31.4083 62.3364C31.5883 63.6064 31.6083 64.8764 31.4083 66.1564C30.8983 67.8364 30.6783 69.6064 29.7783 71.1564C29.4983 71.6464 29.3883 72.2364 28.8483 72.5564C28.4683 72.7864 28.0483 72.7964 27.6083 72.7864C20.6383 72.6564 13.6583 72.7764 6.68826 72.7164C5.39826 72.7164 4.13826 72.7864 2.91826 73.2164C0.878255 70.9364 0.298255 68.1764 0.0582552 65.2164C-0.351745 60.2164 1.41826 56.0964 4.86826 52.6264C7.22826 50.2464 10.2883 49.2164 13.4883 48.5664C14.9783 48.3564 16.4583 48.3664 17.9483 48.5664L17.9283 48.5564Z" fill="white"></path><path d="M91.4282 61.0564C91.7182 58.5064 92.9682 56.4064 94.4582 54.3964C96.9882 50.9864 100.538 49.3864 104.558 48.5764C106.048 48.3464 107.528 48.3864 109.018 48.5564C111.208 49.1264 113.418 49.6464 115.308 50.9664C118.798 53.4064 121.318 56.5164 122.158 60.8064C122.218 61.1164 122.378 61.3964 122.488 61.6964C122.698 63.2864 122.668 64.8764 122.508 66.4664C121.968 68.7264 121.308 70.9364 119.888 72.8264C112.198 72.5864 104.518 72.7864 96.8282 72.7064C95.8582 72.7064 94.9382 72.8764 94.0182 73.1364C92.0482 70.6264 91.1382 67.7764 91.1882 64.5964C91.1882 63.9664 91.1682 63.3364 91.1582 62.7064C91.4782 62.1864 91.1182 61.5564 91.4282 61.0364V61.0564Z" fill="white"></path><path d="M64.5984 48.5764C67.4384 49.2764 70.0584 50.3764 72.4084 52.1964C78.3284 56.8064 79.7484 67.1764 75.1584 72.8864C68.3684 72.5264 61.5784 72.7964 54.7884 72.7464C52.9484 72.7364 51.0684 72.4664 49.2584 73.0764C47.7084 71.1464 46.9484 68.8964 46.6584 66.4764C46.4884 64.8864 46.4684 63.2964 46.6784 61.7064C47.2684 55.8264 52.3884 50.2264 58.2984 48.9864C58.9184 48.8564 59.5284 48.7064 60.1384 48.5664C61.6284 48.3964 63.1184 48.3564 64.5984 48.5864V48.5764Z" fill="white"></path><path d="M136.158 61.6964C136.368 60.9564 136.138 60.1364 136.618 59.4564C137.248 58.7764 138.058 58.6264 138.938 58.6264C147.538 58.6264 156.128 58.6164 164.728 58.6264C165.358 58.6264 166.018 58.6264 166.518 59.1264C167.348 61.1364 167.428 63.2664 167.508 65.4064C167.218 65.9464 167.538 66.5664 167.248 67.1064C166.448 69.7964 165.478 72.4064 163.498 74.4864C160.508 77.6464 156.988 79.7464 152.508 79.9164C151.978 80.0964 151.448 80.1064 150.918 79.9164C146.608 79.8264 143.018 78.0764 140.138 74.9664C138.008 72.6664 136.488 69.9964 136.168 66.7764C135.878 66.1264 136.218 65.3964 135.918 64.7364C135.918 64.3864 135.918 64.0464 135.918 63.6964C136.218 63.0464 135.888 62.3264 136.158 61.6764V61.6964Z" fill="white"></path><path d="M135.918 152.556C136.048 152.216 136.048 151.876 135.918 151.526C136.218 150.876 135.868 150.136 136.168 149.486C137.038 143.216 142.038 137.996 148.538 136.746C157.308 135.056 165.618 141.016 166.958 148.776C166.978 148.916 167.138 149.036 167.228 149.166C167.528 149.706 167.198 150.336 167.488 150.866C167.388 153.226 167.318 155.586 166.238 157.766C156.538 157.576 146.838 157.526 137.148 157.796C136.208 157.036 136.378 155.906 136.178 154.896C135.838 154.136 136.238 153.296 135.908 152.546L135.918 152.556Z" fill="white"></path><path d="M46.6582 149.816C47.2682 143.776 52.0882 138.256 58.5682 136.856C67.2582 134.986 75.4482 140.076 77.5382 148.716C78.2882 151.806 78.1282 154.866 76.7482 157.796C75.7382 157.436 74.6982 157.326 73.6182 157.326C66.0082 157.346 58.3982 157.346 50.7882 157.326C49.7082 157.326 48.6682 157.436 47.6582 157.796C46.8582 156.876 46.8382 155.706 46.6682 154.586C46.4682 152.996 46.4782 151.406 46.6682 149.816H46.6582Z" fill="white"></path><path d="M122.498 154.586C122.028 155.496 122.168 156.626 121.508 157.476C112.318 157.156 103.118 157.416 93.9282 157.336C93.2382 157.336 92.5382 157.406 91.8782 157.126C89.0682 148.276 94.1982 138.336 104.098 136.696C111.428 135.476 118.668 139.556 121.338 146.076C121.828 147.276 122.128 148.566 122.508 149.816C122.678 151.406 122.698 152.996 122.508 154.586H122.498Z" fill="white"></path><path d="M46.6683 13.1564C46.7183 12.8364 46.7583 12.5164 46.8083 12.1964C47.2883 11.4864 48.0283 11.3864 48.7883 11.3864C57.9883 11.3364 67.1983 11.3864 76.3983 11.3664C76.7183 11.3664 77.0383 11.4064 77.3183 11.5764C78.9683 17.8664 77.2283 23.1864 72.4583 27.4364C67.7183 31.6664 62.0583 32.5464 56.2883 30.2864C50.8483 28.1564 47.4583 23.9264 46.6483 17.9364C46.4783 16.3464 46.4483 14.7564 46.6583 13.1664L46.6683 13.1564Z" fill="white"></path><path d="M122.498 110.526C122.378 110.736 122.258 110.956 122.138 111.166C121.478 111.426 120.778 111.356 120.088 111.356C111.648 111.356 103.218 111.356 94.7783 111.356C93.6983 111.356 92.6583 111.376 91.7783 112.116C90.6283 108.586 90.9983 105.156 92.4583 101.786C94.7183 96.5664 98.8183 93.7464 104.248 92.6164C104.898 92.3264 105.628 92.6764 106.268 92.3664C106.728 92.3664 107.178 92.3664 107.638 92.3664C108.288 92.6764 109.018 92.3164 109.668 92.6264C112.058 93.3964 114.438 94.1464 116.458 95.7564C119.458 98.1364 121.408 101.116 122.168 104.876C122.228 105.176 122.388 105.466 122.498 105.756C122.688 107.346 122.678 108.936 122.498 110.526Z" fill="white"></path><path d="M136.528 111.796C136.408 111.486 136.288 111.166 136.178 110.856C135.858 110.106 136.248 109.266 135.918 108.516C135.918 108.176 135.918 107.836 135.918 107.486C136.218 106.836 135.868 106.096 136.178 105.436C137.458 99.0464 141.148 94.8464 147.478 93.0464C147.988 92.9064 148.488 92.7664 148.998 92.6264C149.648 92.3164 150.378 92.6764 151.028 92.3664C151.488 92.3664 151.948 92.3664 152.398 92.3664C153.038 92.6764 153.768 92.3264 154.418 92.6164C157.738 93.4764 160.748 94.8664 163.148 97.4064C165.228 99.6064 166.338 102.286 167.218 105.106C167.528 105.646 167.198 106.286 167.488 106.826C167.488 107.696 167.488 108.576 167.488 109.446C167.208 109.986 167.528 110.626 167.228 111.166L166.888 111.496C157.438 111.196 147.988 111.436 138.538 111.366C137.828 111.366 137.188 111.596 136.528 111.796Z" fill="white"></path><path d="M122.508 17.9264C121.718 21.2464 120.458 24.3264 117.928 26.7564C114.768 29.7964 111.028 31.2664 106.628 31.3464C99.7682 31.4664 94.2282 26.8364 92.1082 21.2564C91.6682 20.0864 91.2082 18.8764 91.2682 17.5764C91.3216 15.5631 92.3549 14.5564 94.3682 14.5564C102.878 14.5564 111.388 14.5564 119.888 14.5564C120.728 14.5564 121.598 14.4364 122.378 14.9164C122.808 15.9064 122.628 16.9164 122.508 17.9264Z" fill="white"></path><path d="M166.948 18.5864C166.378 23.2264 163.728 26.6564 159.968 29.0064C153.488 33.0564 145.458 31.9264 140.318 26.6364C138.058 24.3064 136.578 21.5264 136.148 18.2564C135.948 17.5664 136.088 16.8464 136.048 16.1464C135.978 15.4164 136.368 15.0764 137.038 14.9664C137.458 14.8964 137.878 14.8764 138.308 14.8764C147.228 14.8764 156.148 14.8664 165.068 14.8764C167.088 14.8764 167.238 15.0264 167.358 16.6064C167.368 17.2964 167.418 17.9964 166.938 18.5764L166.948 18.5864Z" fill="white"></path><path d="M167.248 17.0664C167.368 15.8264 166.928 15.3464 165.558 15.3564C156.318 15.4164 147.078 15.3864 137.838 15.3964C137.078 15.3964 136.138 15.1464 136.158 16.4364C136.018 16.4364 135.938 16.3664 135.918 16.2364V15.1764C136.218 14.5364 135.878 13.8164 136.148 13.1764C136.978 6.45638 143.158 0.366382 150.508 0.0263821C158.908 -0.363618 164.788 4.94638 166.668 10.9664C167.268 12.8964 167.468 14.8864 167.488 16.8964C167.458 17.0264 167.378 17.0964 167.248 17.0864V17.0664Z" fill="white"></path><path d="M122.488 15.0664C113.148 15.0664 103.808 15.0664 94.4582 15.0664C92.6649 15.0664 91.6016 15.9031 91.2682 17.5764C90.6082 12.6064 92.0482 8.27641 95.4382 4.6464C97.8582 2.0464 100.958 0.506405 104.478 0.136405C111.518 -0.623595 116.998 1.9864 120.668 8.1264C121.598 9.68641 121.938 11.4664 122.488 13.1664C122.668 13.8064 122.688 14.4364 122.488 15.0764V15.0664Z" fill="white"></path><path d="M136.528 111.796C136.458 110.976 136.938 110.846 137.618 110.856C147.018 110.866 156.418 110.856 165.808 110.856C166.298 110.856 166.798 110.826 166.878 111.496C166.028 117.206 160.598 122.636 154.728 123.656C154.198 123.956 153.558 123.626 153.028 123.916C152.148 123.916 151.258 123.916 150.378 123.916C149.838 123.626 149.198 123.956 148.668 123.646C144.328 122.946 141.048 120.616 138.628 117.026C137.558 115.436 136.668 113.766 136.528 111.796Z" fill="white"></path><path d="M91.7782 112.116C91.6482 111.136 92.0682 110.836 93.0382 110.846C102.348 110.876 111.648 110.866 120.958 110.866C121.378 110.866 121.818 110.786 122.138 111.176C121.338 116.716 116.638 121.816 111.198 123.306C109.338 123.816 107.488 123.816 105.628 123.916C105.098 123.626 104.468 123.946 103.928 123.656C98.2782 122.786 92.8382 118.076 91.7782 112.116Z" fill="white"></path><path d="M77.3284 11.5664C76.7084 11.9864 75.9984 11.8664 75.3184 11.8764C66.5984 11.8764 57.8784 11.8764 49.1584 11.8764C48.3584 11.8764 47.5684 11.9064 46.8184 12.2064C48.3484 5.36641 54.3884 0.366408 60.8984 0.0264077C69.8184 -0.443592 75.8684 5.43641 77.3284 11.5764V11.5664Z" fill="white"></path><path d="M91.8782 157.136C92.3882 156.766 92.9882 156.836 93.5682 156.836C102.368 156.836 111.168 156.836 119.968 156.846C120.528 156.846 121.318 156.506 121.508 157.476C120.368 161.416 117.638 164.006 114.238 166.006C112.728 166.896 111.048 167.336 109.358 167.716C107.768 167.906 106.168 167.896 104.578 167.716C98.2282 166.716 94.0482 163.116 91.8882 157.116L91.8782 157.136Z" fill="white"></path><path d="M47.6582 157.796C47.7282 156.936 48.3182 156.826 49.0182 156.826C57.8082 156.826 66.5982 156.826 75.3882 156.826C76.0882 156.826 76.6782 156.926 76.7482 157.796C75.2382 161.996 72.2882 164.816 68.3082 166.676C67.1282 167.226 65.8382 167.416 64.5982 167.736C63.0082 167.906 61.4082 167.926 59.8182 167.736C53.8482 166.766 49.8482 163.396 47.6582 157.806V157.796Z" fill="white"></path><path d="M166.508 59.1364C157.328 59.1364 148.138 59.1364 138.958 59.1364C138.158 59.1364 137.378 59.1864 136.618 59.4664C138.828 53.2864 143.148 49.6264 149.648 48.5664C151.028 48.3864 152.408 48.3864 153.788 48.5664C159.718 49.7164 164.028 52.8864 166.368 58.5464C166.448 58.7364 166.468 58.9464 166.518 59.1464L166.508 59.1364Z" fill="white"></path><path d="M137.158 157.806C137.268 157.026 137.868 157.156 138.378 157.156C147.258 157.156 156.128 157.156 165.008 157.156C165.508 157.156 166.128 156.996 166.248 157.786C164.318 163.036 160.278 165.926 155.188 167.636C154.848 167.746 154.458 167.706 154.098 167.736C152.508 167.916 150.908 167.916 149.318 167.736C144.488 167.066 140.878 164.566 138.368 160.436C137.868 159.616 137.028 158.926 137.158 157.816V157.806Z" fill="white"></path><path d="M94.0183 73.1464C94.0983 72.2664 94.7283 72.2164 95.4083 72.2164C103.118 72.2164 110.828 72.2164 118.538 72.2164C119.088 72.2164 119.608 72.2464 119.888 72.8264C116.978 77.1264 112.928 79.4964 107.748 79.9164C107.218 80.1064 106.688 80.1064 106.168 79.9164C101.708 79.7964 98.0683 77.9164 95.0583 74.6964C94.6283 74.2364 94.2083 73.7664 94.0183 73.1464Z" fill="white"></path><path d="M49.2583 73.0664C49.2183 72.3264 49.6683 72.2164 50.2883 72.2164C58.2283 72.2164 66.1583 72.2164 74.0983 72.2164C74.5983 72.2164 75.0883 72.2164 75.1583 72.8764C72.2583 77.2164 68.1483 79.4564 62.9983 79.9164C62.4683 80.0964 61.9383 80.1064 61.4183 79.9164C57.3183 79.7664 53.8783 78.1064 50.9383 75.3164C50.2483 74.6564 49.8283 73.8164 49.2683 73.0664H49.2583Z" fill="white"></path><path d="M2.89819 73.2164C3.10819 72.2364 3.88819 72.2264 4.63819 72.2264C12.1282 72.2264 19.6282 72.2164 27.1182 72.2264C27.6882 72.2264 28.2582 72.4264 28.8282 72.5364C26.0782 77.1564 21.8482 79.3264 16.6482 79.8964C16.1182 80.0864 15.5882 80.0764 15.0682 79.8964C11.8482 79.8464 8.88819 78.9064 6.38819 76.9064C5.07819 75.8564 3.69819 74.7764 2.89819 73.1964V73.2164Z" fill="white"></path><path d="M122.488 15.0664C122.488 14.4264 122.488 13.7964 122.488 13.1564C122.968 14.7464 122.948 16.3364 122.498 17.9264C122.498 16.9764 122.488 16.0164 122.478 15.0664H122.488Z" fill="white"></path><path d="M46.6682 13.1564C46.6682 14.7464 46.6682 16.3364 46.6582 17.9264C46.2082 16.3364 46.1882 14.7464 46.6682 13.1564Z" fill="white"></path><path d="M122.508 66.4664C122.508 64.8764 122.498 63.2864 122.488 61.6964C122.968 63.2864 122.948 64.8764 122.508 66.4664Z" fill="white"></path><path d="M109.028 48.5564C107.538 48.5564 106.058 48.5664 104.568 48.5764C106.058 48.0864 107.538 48.1264 109.028 48.5564Z" fill="white"></path><path d="M153.778 48.5464C152.398 48.5464 151.018 48.5464 149.638 48.5464C151.018 48.0964 152.398 48.0964 153.778 48.5464Z" fill="white"></path><path d="M321.418 206.936C322.738 206.526 324.118 207.026 325.438 206.646C324.138 207.306 322.758 206.816 321.418 206.936Z" fill="#FCFCFC"></path><path d="M167.248 17.0664C167.328 17.0064 167.408 16.9464 167.488 16.8764C167.388 17.4664 167.938 18.2764 166.938 18.5764C166.758 18.0164 167.528 17.6464 167.248 17.0664Z" fill="white"></path><path d="M135.918 64.7464C136.208 65.3964 136.168 66.0964 136.168 66.7864C135.638 66.1664 135.958 65.4364 135.918 64.7464Z" fill="white"></path><path d="M136.158 61.6964C136.158 62.3764 136.188 63.0664 135.918 63.7164C135.958 63.0364 135.658 62.3264 136.158 61.6964Z" fill="white"></path><path d="M136.158 13.1664C136.158 13.8464 136.198 14.5264 135.918 15.1664C135.958 14.4964 135.658 13.7764 136.158 13.1664Z" fill="white"></path><path d="M135.928 16.2264C136.008 16.2964 136.088 16.3664 136.168 16.4264C136.168 17.0364 136.158 17.6464 136.148 18.2464C135.658 17.6164 135.948 16.8964 135.928 16.2164V16.2264Z" fill="white"></path><path d="M91.4283 61.0564C91.4483 61.6264 91.4384 62.1964 91.1584 62.7264C91.1984 62.1664 90.9283 61.5464 91.4283 61.0564Z" fill="white"></path><path d="M167.238 67.1064C167.218 66.5264 167.208 65.9464 167.498 65.4064C167.468 65.9764 167.738 66.5964 167.238 67.1064Z" fill="white"></path><path d="M295.698 1.28638C300.158 5.00638 304.618 8.72638 309.088 12.4364C314.338 16.7864 319.478 21.2864 324.938 25.3664C327.528 27.3064 328.048 29.4464 328.048 32.4364C327.968 91.4864 327.988 150.526 327.988 209.576C327.988 210.266 327.988 210.956 327.998 211.646C326.678 212.036 325.298 211.536 323.978 211.936C323.348 211.896 322.718 211.816 322.088 211.816C275.268 211.826 228.448 211.836 181.628 211.906C179.968 211.906 179.688 211.456 179.688 209.906C179.728 140.896 179.728 71.8964 179.688 2.88638C179.688 1.14638 180.208 0.866382 181.788 0.876382C199.628 0.976382 217.478 0.996382 235.318 1.02638C235.788 1.02638 236.268 0.956382 236.738 0.916382C237.358 1.16638 237.998 1.04638 238.638 1.04638C257.098 1.04638 275.558 1.04638 294.018 1.06638C294.578 1.06638 295.188 0.856382 295.708 1.26638L295.698 1.28638ZM204.948 184.716C204.948 185.876 205.108 186.346 206.458 186.346C238.258 186.306 270.048 186.306 301.848 186.346C302.998 186.346 303.378 186.126 303.368 184.876C303.328 137.526 303.338 90.1764 303.358 42.8364C303.358 41.9664 303.118 41.3764 302.478 40.7764C297.308 36.0164 292.158 31.2364 287.038 26.4264C286.328 25.7564 285.618 25.4964 284.648 25.4964C258.658 25.5264 232.668 25.5264 206.678 25.4864C205.298 25.4864 204.928 25.7764 204.938 27.2064C204.988 53.4364 204.978 79.6664 204.978 105.886C204.978 132.106 204.978 158.446 204.958 184.726L204.948 184.716Z" fill="white"></path></svg>