<svg width="1225" height="216" viewBox="0 0 1225 216" fill="none" xmlns="http://www.w3.org/2000/svg">
<path d="M153.778 184.256C156.618 184.926 159.318 185.846 161.618 187.776C164.348 190.066 166.178 192.856 166.948 196.336C167.008 196.586 167.148 196.826 167.248 197.066C167.518 197.596 167.198 198.216 167.498 198.736C167.498 199.526 167.498 200.306 167.498 201.096C167.208 201.636 167.528 202.256 167.248 202.796C166.328 206.156 164.828 209.166 162.168 211.536C159.508 213.906 156.448 215.236 152.898 215.546C144.698 216.266 138.458 210.956 136.378 204.006C136.228 203.516 136.238 202.986 136.178 202.466C135.888 201.806 136.228 201.076 135.928 200.416C136.068 200.076 136.048 199.736 135.928 199.396C136.228 198.746 135.898 198.026 136.168 197.366C136.758 191.466 141.978 185.826 147.948 184.616C148.518 184.506 149.078 184.356 149.638 184.226C151.018 184.026 152.398 184.026 153.778 184.226V184.256Z" fill="white"/>
<path d="M17.9283 48.5564C20.9083 49.2864 23.7183 50.3264 26.0783 52.4064C29.0983 55.0664 30.6483 58.4764 31.4083 62.3364C31.5883 63.6064 31.6083 64.8764 31.4083 66.1564C30.8983 67.8364 30.6783 69.6064 29.7783 71.1564C29.4983 71.6464 29.3883 72.2364 28.8483 72.5564C28.4683 72.7864 28.0483 72.7964 27.6083 72.7864C20.6383 72.6564 13.6583 72.7764 6.68826 72.7164C5.39826 72.7164 4.13826 72.7864 2.91826 73.2164C0.878255 70.9364 0.298255 68.1764 0.0582552 65.2164C-0.351745 60.2164 1.41826 56.0964 4.86826 52.6264C7.22826 50.2464 10.2883 49.2164 13.4883 48.5664C14.9783 48.3564 16.4583 48.3664 17.9483 48.5664L17.9283 48.5564Z" fill="white"/>
<path d="M91.4282 61.0564C91.7182 58.5064 92.9682 56.4064 94.4582 54.3964C96.9882 50.9864 100.538 49.3864 104.558 48.5764C106.048 48.3464 107.528 48.3864 109.018 48.5564C111.208 49.1264 113.418 49.6464 115.308 50.9664C118.798 53.4064 121.318 56.5164 122.158 60.8064C122.218 61.1164 122.378 61.3964 122.488 61.6964C122.698 63.2864 122.668 64.8764 122.508 66.4664C121.968 68.7264 121.308 70.9364 119.888 72.8264C112.198 72.5864 104.518 72.7864 96.8282 72.7064C95.8582 72.7064 94.9382 72.8764 94.0182 73.1364C92.0482 70.6264 91.1382 67.7764 91.1882 64.5964C91.1882 63.9664 91.1682 63.3364 91.1582 62.7064C91.4782 62.1864 91.1182 61.5564 91.4282 61.0364V61.0564Z" fill="white"/>
<path d="M64.5984 48.5764C67.4384 49.2764 70.0584 50.3764 72.4084 52.1964C78.3284 56.8064 79.7484 67.1764 75.1584 72.8864C68.3684 72.5264 61.5784 72.7964 54.7884 72.7464C52.9484 72.7364 51.0684 72.4664 49.2584 73.0764C47.7084 71.1464 46.9484 68.8964 46.6584 66.4764C46.4884 64.8864 46.4684 63.2964 46.6784 61.7064C47.2684 55.8264 52.3884 50.2264 58.2984 48.9864C58.9184 48.8564 59.5284 48.7064 60.1384 48.5664C61.6284 48.3964 63.1184 48.3564 64.5984 48.5864V48.5764Z" fill="white"/>
<path d="M136.158 61.6964C136.368 60.9564 136.138 60.1364 136.618 59.4564C137.248 58.7764 138.058 58.6264 138.938 58.6264C147.538 58.6264 156.128 58.6164 164.728 58.6264C165.358 58.6264 166.018 58.6264 166.518 59.1264C167.348 61.1364 167.428 63.2664 167.508 65.4064C167.218 65.9464 167.538 66.5664 167.248 67.1064C166.448 69.7964 165.478 72.4064 163.498 74.4864C160.508 77.6464 156.988 79.7464 152.508 79.9164C151.978 80.0964 151.448 80.1064 150.918 79.9164C146.608 79.8264 143.018 78.0764 140.138 74.9664C138.008 72.6664 136.488 69.9964 136.168 66.7764C135.878 66.1264 136.218 65.3964 135.918 64.7364C135.918 64.3864 135.918 64.0464 135.918 63.6964C136.218 63.0464 135.888 62.3264 136.158 61.6764V61.6964Z" fill="white"/>
<path d="M135.918 152.556C136.048 152.216 136.048 151.876 135.918 151.526C136.218 150.876 135.868 150.136 136.168 149.486C137.038 143.216 142.038 137.996 148.538 136.746C157.308 135.056 165.618 141.016 166.958 148.776C166.978 148.916 167.138 149.036 167.228 149.166C167.528 149.706 167.198 150.336 167.488 150.866C167.388 153.226 167.318 155.586 166.238 157.766C156.538 157.576 146.838 157.526 137.148 157.796C136.208 157.036 136.378 155.906 136.178 154.896C135.838 154.136 136.238 153.296 135.908 152.546L135.918 152.556Z" fill="white"/>
<path d="M46.6582 149.816C47.2682 143.776 52.0882 138.256 58.5682 136.856C67.2582 134.986 75.4482 140.076 77.5382 148.716C78.2882 151.806 78.1282 154.866 76.7482 157.796C75.7382 157.436 74.6982 157.326 73.6182 157.326C66.0082 157.346 58.3982 157.346 50.7882 157.326C49.7082 157.326 48.6682 157.436 47.6582 157.796C46.8582 156.876 46.8382 155.706 46.6682 154.586C46.4682 152.996 46.4782 151.406 46.6682 149.816H46.6582Z" fill="white"/>
<path d="M122.498 154.586C122.028 155.496 122.168 156.626 121.508 157.476C112.318 157.156 103.118 157.416 93.9282 157.336C93.2382 157.336 92.5382 157.406 91.8782 157.126C89.0682 148.276 94.1982 138.336 104.098 136.696C111.428 135.476 118.668 139.556 121.338 146.076C121.828 147.276 122.128 148.566 122.508 149.816C122.678 151.406 122.698 152.996 122.508 154.586H122.498Z" fill="white"/>
<path d="M46.6683 13.1564C46.7183 12.8364 46.7583 12.5164 46.8083 12.1964C47.2883 11.4864 48.0283 11.3864 48.7883 11.3864C57.9883 11.3364 67.1983 11.3864 76.3983 11.3664C76.7183 11.3664 77.0383 11.4064 77.3183 11.5764C78.9683 17.8664 77.2283 23.1864 72.4583 27.4364C67.7183 31.6664 62.0583 32.5464 56.2883 30.2864C50.8483 28.1564 47.4583 23.9264 46.6483 17.9364C46.4783 16.3464 46.4483 14.7564 46.6583 13.1664L46.6683 13.1564Z" fill="white"/>
<path d="M122.498 110.526C122.378 110.736 122.258 110.956 122.138 111.166C121.478 111.426 120.778 111.356 120.088 111.356C111.648 111.356 103.218 111.356 94.7783 111.356C93.6983 111.356 92.6583 111.376 91.7783 112.116C90.6283 108.586 90.9983 105.156 92.4583 101.786C94.7183 96.5664 98.8183 93.7464 104.248 92.6164C104.898 92.3264 105.628 92.6764 106.268 92.3664C106.728 92.3664 107.178 92.3664 107.638 92.3664C108.288 92.6764 109.018 92.3164 109.668 92.6264C112.058 93.3964 114.438 94.1464 116.458 95.7564C119.458 98.1364 121.408 101.116 122.168 104.876C122.228 105.176 122.388 105.466 122.498 105.756C122.688 107.346 122.678 108.936 122.498 110.526Z" fill="white"/>
<path d="M136.528 111.796C136.408 111.486 136.288 111.166 136.178 110.856C135.858 110.106 136.248 109.266 135.918 108.516C135.918 108.176 135.918 107.836 135.918 107.486C136.218 106.836 135.868 106.096 136.178 105.436C137.458 99.0464 141.148 94.8464 147.478 93.0464C147.988 92.9064 148.488 92.7664 148.998 92.6264C149.648 92.3164 150.378 92.6764 151.028 92.3664C151.488 92.3664 151.948 92.3664 152.398 92.3664C153.038 92.6764 153.768 92.3264 154.418 92.6164C157.738 93.4764 160.748 94.8664 163.148 97.4064C165.228 99.6064 166.338 102.286 167.218 105.106C167.528 105.646 167.198 106.286 167.488 106.826C167.488 107.696 167.488 108.576 167.488 109.446C167.208 109.986 167.528 110.626 167.228 111.166L166.888 111.496C157.438 111.196 147.988 111.436 138.538 111.366C137.828 111.366 137.188 111.596 136.528 111.796Z" fill="white"/>
<path d="M122.508 17.9264C121.718 21.2464 120.458 24.3264 117.928 26.7564C114.768 29.7964 111.028 31.2664 106.628 31.3464C99.7682 31.4664 94.2282 26.8364 92.1082 21.2564C91.6682 20.0864 91.2082 18.8764 91.2682 17.5764C91.3216 15.5631 92.3549 14.5564 94.3682 14.5564C102.878 14.5564 111.388 14.5564 119.888 14.5564C120.728 14.5564 121.598 14.4364 122.378 14.9164C122.808 15.9064 122.628 16.9164 122.508 17.9264Z" fill="white"/>
<path d="M166.948 18.5864C166.378 23.2264 163.728 26.6564 159.968 29.0064C153.488 33.0564 145.458 31.9264 140.318 26.6364C138.058 24.3064 136.578 21.5264 136.148 18.2564C135.948 17.5664 136.088 16.8464 136.048 16.1464C135.978 15.4164 136.368 15.0764 137.038 14.9664C137.458 14.8964 137.878 14.8764 138.308 14.8764C147.228 14.8764 156.148 14.8664 165.068 14.8764C167.088 14.8764 167.238 15.0264 167.358 16.6064C167.368 17.2964 167.418 17.9964 166.938 18.5764L166.948 18.5864Z" fill="white"/>
<path d="M167.248 17.0664C167.368 15.8264 166.928 15.3464 165.558 15.3564C156.318 15.4164 147.078 15.3864 137.838 15.3964C137.078 15.3964 136.138 15.1464 136.158 16.4364C136.018 16.4364 135.938 16.3664 135.918 16.2364V15.1764C136.218 14.5364 135.878 13.8164 136.148 13.1764C136.978 6.45638 143.158 0.366382 150.508 0.0263821C158.908 -0.363618 164.788 4.94638 166.668 10.9664C167.268 12.8964 167.468 14.8864 167.488 16.8964C167.458 17.0264 167.378 17.0964 167.248 17.0864V17.0664Z" fill="white"/>
<path d="M122.488 15.0664C113.148 15.0664 103.808 15.0664 94.4582 15.0664C92.6649 15.0664 91.6016 15.9031 91.2682 17.5764C90.6082 12.6064 92.0482 8.2764 95.4382 4.6464C97.8582 2.0464 100.958 0.506405 104.478 0.136405C111.518 -0.623595 116.998 1.9864 120.668 8.1264C121.598 9.6864 121.938 11.4664 122.488 13.1664C122.668 13.8064 122.688 14.4364 122.488 15.0764V15.0664Z" fill="white"/>
<path d="M136.528 111.796C136.458 110.976 136.938 110.846 137.618 110.856C147.018 110.866 156.418 110.856 165.808 110.856C166.298 110.856 166.798 110.826 166.878 111.496C166.028 117.206 160.598 122.636 154.728 123.656C154.198 123.956 153.558 123.626 153.028 123.916C152.148 123.916 151.258 123.916 150.378 123.916C149.838 123.626 149.198 123.956 148.668 123.646C144.328 122.946 141.048 120.616 138.628 117.026C137.558 115.436 136.668 113.766 136.528 111.796Z" fill="white"/>
<path d="M91.7782 112.116C91.6482 111.136 92.0682 110.836 93.0382 110.846C102.348 110.876 111.648 110.866 120.958 110.866C121.378 110.866 121.818 110.786 122.138 111.176C121.338 116.716 116.638 121.816 111.198 123.306C109.338 123.816 107.488 123.816 105.628 123.916C105.098 123.626 104.468 123.946 103.928 123.656C98.2782 122.786 92.8382 118.076 91.7782 112.116Z" fill="white"/>
<path d="M77.3284 11.5664C76.7084 11.9864 75.9984 11.8664 75.3184 11.8764C66.5984 11.8764 57.8784 11.8764 49.1584 11.8764C48.3584 11.8764 47.5684 11.9064 46.8184 12.2064C48.3484 5.36641 54.3884 0.366408 60.8984 0.0264077C69.8184 -0.443592 75.8684 5.43641 77.3284 11.5764V11.5664Z" fill="white"/>
<path d="M91.8782 157.136C92.3882 156.766 92.9882 156.836 93.5682 156.836C102.368 156.836 111.168 156.836 119.968 156.846C120.528 156.846 121.318 156.506 121.508 157.476C120.368 161.416 117.638 164.006 114.238 166.006C112.728 166.896 111.048 167.336 109.358 167.716C107.768 167.906 106.168 167.896 104.578 167.716C98.2282 166.716 94.0482 163.116 91.8882 157.116L91.8782 157.136Z" fill="white"/>
<path d="M47.6582 157.796C47.7282 156.936 48.3182 156.826 49.0182 156.826C57.8082 156.826 66.5982 156.826 75.3882 156.826C76.0882 156.826 76.6782 156.926 76.7482 157.796C75.2382 161.996 72.2882 164.816 68.3082 166.676C67.1282 167.226 65.8382 167.416 64.5982 167.736C63.0082 167.906 61.4082 167.926 59.8182 167.736C53.8482 166.766 49.8482 163.396 47.6582 157.806V157.796Z" fill="white"/>
<path d="M166.508 59.1364C157.328 59.1364 148.138 59.1364 138.958 59.1364C138.158 59.1364 137.378 59.1864 136.618 59.4664C138.828 53.2864 143.148 49.6264 149.648 48.5664C151.028 48.3864 152.408 48.3864 153.788 48.5664C159.718 49.7164 164.028 52.8864 166.368 58.5464C166.448 58.7364 166.468 58.9464 166.518 59.1464L166.508 59.1364Z" fill="white"/>
<path d="M137.158 157.806C137.268 157.026 137.868 157.156 138.378 157.156C147.258 157.156 156.128 157.156 165.008 157.156C165.508 157.156 166.128 156.996 166.248 157.786C164.318 163.036 160.278 165.926 155.188 167.636C154.848 167.746 154.458 167.706 154.098 167.736C152.508 167.916 150.908 167.916 149.318 167.736C144.488 167.066 140.878 164.566 138.368 160.436C137.868 159.616 137.028 158.926 137.158 157.816V157.806Z" fill="white"/>
<path d="M94.0183 73.1464C94.0983 72.2664 94.7283 72.2164 95.4083 72.2164C103.118 72.2164 110.828 72.2164 118.538 72.2164C119.088 72.2164 119.608 72.2464 119.888 72.8264C116.978 77.1264 112.928 79.4964 107.748 79.9164C107.218 80.1064 106.688 80.1064 106.168 79.9164C101.708 79.7964 98.0683 77.9164 95.0583 74.6964C94.6283 74.2364 94.2083 73.7664 94.0183 73.1464Z" fill="white"/>
<path d="M49.2583 73.0664C49.2183 72.3264 49.6683 72.2164 50.2883 72.2164C58.2283 72.2164 66.1583 72.2164 74.0983 72.2164C74.5983 72.2164 75.0883 72.2164 75.1583 72.8764C72.2583 77.2164 68.1483 79.4564 62.9983 79.9164C62.4683 80.0964 61.9383 80.1064 61.4183 79.9164C57.3183 79.7664 53.8783 78.1064 50.9383 75.3164C50.2483 74.6564 49.8283 73.8164 49.2683 73.0664H49.2583Z" fill="white"/>
<path d="M2.89819 73.2164C3.10819 72.2364 3.88819 72.2264 4.63819 72.2264C12.1282 72.2264 19.6282 72.2164 27.1182 72.2264C27.6882 72.2264 28.2582 72.4264 28.8282 72.5364C26.0782 77.1564 21.8482 79.3264 16.6482 79.8964C16.1182 80.0864 15.5882 80.0764 15.0682 79.8964C11.8482 79.8464 8.88819 78.9064 6.38819 76.9064C5.07819 75.8564 3.69819 74.7764 2.89819 73.1964V73.2164Z" fill="white"/>
<path d="M122.488 15.0664C122.488 14.4264 122.488 13.7964 122.488 13.1564C122.968 14.7464 122.948 16.3364 122.498 17.9264C122.498 16.9764 122.488 16.0164 122.478 15.0664H122.488Z" fill="white"/>
<path d="M46.6682 13.1564C46.6682 14.7464 46.6682 16.3364 46.6582 17.9264C46.2082 16.3364 46.1882 14.7464 46.6682 13.1564Z" fill="white"/>
<path d="M122.508 66.4664C122.508 64.8764 122.498 63.2864 122.488 61.6964C122.968 63.2864 122.948 64.8764 122.508 66.4664Z" fill="white"/>
<path d="M109.028 48.5564C107.538 48.5564 106.058 48.5664 104.568 48.5764C106.058 48.0864 107.538 48.1264 109.028 48.5564Z" fill="white"/>
<path d="M153.778 48.5464C152.398 48.5464 151.018 48.5464 149.638 48.5464C151.018 48.0964 152.398 48.0964 153.778 48.5464Z" fill="white"/>
<path d="M321.418 206.936C322.738 206.526 324.118 207.026 325.438 206.646C324.138 207.306 322.758 206.816 321.418 206.936Z" fill="#FCFCFC"/>
<path d="M167.248 17.0664C167.328 17.0064 167.408 16.9464 167.488 16.8764C167.388 17.4664 167.938 18.2764 166.938 18.5764C166.758 18.0164 167.528 17.6464 167.248 17.0664Z" fill="white"/>
<path d="M135.918 64.7464C136.208 65.3964 136.168 66.0964 136.168 66.7864C135.638 66.1664 135.958 65.4364 135.918 64.7464Z" fill="white"/>
<path d="M136.158 61.6964C136.158 62.3764 136.188 63.0664 135.918 63.7164C135.958 63.0364 135.658 62.3264 136.158 61.6964Z" fill="white"/>
<path d="M136.158 13.1664C136.158 13.8464 136.198 14.5264 135.918 15.1664C135.958 14.4964 135.658 13.7764 136.158 13.1664Z" fill="white"/>
<path d="M135.928 16.2264C136.008 16.2964 136.088 16.3664 136.168 16.4264C136.168 17.0364 136.158 17.6464 136.148 18.2464C135.658 17.6164 135.948 16.8964 135.928 16.2164V16.2264Z" fill="white"/>
<path d="M91.4283 61.0564C91.4483 61.6264 91.4384 62.1964 91.1584 62.7264C91.1984 62.1664 90.9283 61.5464 91.4283 61.0564Z" fill="white"/>
<path d="M167.238 67.1064C167.218 66.5264 167.208 65.9464 167.498 65.4064C167.468 65.9764 167.738 66.5964 167.238 67.1064Z" fill="white"/>
<path d="M462.298 24.6464C462.278 24.9464 462.248 25.2364 462.228 25.5364C462.048 26.8364 462.018 28.1664 461.648 29.4364C461.518 30.6464 460.988 31.2864 459.648 30.9764C459.208 30.8764 458.728 30.9964 458.268 31.0164C456.068 30.6964 453.868 30.9664 451.668 30.8764C451.048 30.8464 450.408 30.9964 449.798 30.7564C444.218 30.7064 438.648 30.6164 433.068 30.6064C422.818 30.5764 412.558 30.6064 402.308 30.6064C401.728 30.6064 401.148 30.6664 400.568 30.7064C400.248 31.3164 400.198 32.0064 399.978 32.6364L399.888 33.8064C399.608 34.3464 399.908 34.9664 399.638 35.5064C399.618 35.7864 399.588 36.0664 399.568 36.3364C399.288 37.9564 399.388 39.6364 398.808 41.2064C398.498 42.0264 398.658 42.8864 398.618 43.7364C398.278 44.3664 398.688 45.0964 398.338 45.7264C398.318 45.9064 398.308 46.0864 398.288 46.2564C398.108 47.6764 398.068 49.1164 397.698 50.5164C397.678 50.6964 397.668 50.8764 397.648 51.0564C397.358 51.5864 397.658 52.2064 397.408 52.7464C397.408 53.2964 396.998 53.8064 397.278 54.3764C397.838 54.6264 398.428 54.5064 399.008 54.5064C414.898 54.5064 430.788 54.5064 446.678 54.5364C447.298 54.5364 448.668 53.9164 448.188 55.6264C447.678 56.6964 447.878 57.8464 447.838 58.9664C447.528 59.6364 447.908 60.3964 447.548 61.0564C447.448 61.1264 447.438 61.2064 447.518 61.2964C447.288 62.7064 447.428 64.1564 446.948 65.5264C446.918 65.8964 446.898 66.2764 446.868 66.6464C446.608 67.2064 446.878 67.8364 446.618 68.3964C446.598 68.6864 446.568 68.9664 446.548 69.2564C446.148 70.0964 446.738 71.0664 446.198 71.8864L446.218 71.8464C445.878 72.5764 446.358 73.4264 445.918 74.1464C445.358 75.1064 445.688 76.1564 445.588 77.1664C445.278 77.8264 445.658 78.5864 445.308 79.2464C445.298 79.4064 445.288 79.5664 445.268 79.7164C445.098 81.1564 445.048 82.6164 444.688 84.0264C444.618 84.1064 444.598 84.2064 444.648 84.3064C444.518 84.5464 444.358 84.8164 444.058 84.7664C440.358 84.1864 436.628 84.6864 432.918 84.4964C420.148 83.8264 407.368 84.3564 394.588 84.1964C394.018 84.1964 393.418 84.0464 392.858 84.3464C392.458 86.4564 392.438 88.6264 391.948 90.7364C391.918 91.1164 391.898 91.4964 391.868 91.8764C391.608 92.4264 391.878 93.0564 391.628 93.6064L391.548 94.7564C391.238 95.4064 391.618 96.1564 391.278 96.8064C391.268 96.9864 391.248 97.1664 391.238 97.3464C390.948 99.7164 390.858 102.116 390.348 104.466C390.328 104.756 390.308 105.056 390.278 105.346C389.978 105.876 390.278 106.486 390.038 107.016C390.008 107.416 389.988 107.826 389.958 108.226C389.588 108.956 390.048 109.796 389.668 110.526C389.658 110.686 389.638 110.846 389.628 111.006C389.258 111.876 389.778 112.846 389.288 113.696V113.666C389.088 115.166 389.188 116.716 388.728 118.186C388.708 118.466 388.688 118.736 388.658 119.016C388.398 119.566 388.658 120.186 388.418 120.746L388.338 121.926C388.018 122.566 388.388 123.296 388.078 123.936C388.058 124.206 388.038 124.486 388.018 124.756C387.638 125.616 388.188 126.586 387.678 127.426V127.396C387.538 129.016 387.458 130.646 387.098 132.236C386.588 133.326 386.808 134.486 386.738 135.616C386.438 136.266 386.798 137.006 386.478 137.656C386.338 138.866 385.808 139.306 384.448 139.296C370.998 139.226 357.538 139.256 344.088 139.246C343.348 139.246 342.468 139.436 341.908 139.096C341.148 138.636 342.198 137.986 342.138 137.296C342.078 136.496 342.488 135.666 342.688 134.846C343.038 134.336 342.608 133.686 343.008 133.186L344.308 126.306C344.608 125.766 344.208 125.086 344.628 124.566C344.448 123.916 344.818 123.376 344.948 122.776C345.118 121.886 345.078 120.946 345.488 120.096C345.518 119.796 345.538 119.496 345.568 119.196C345.818 118.236 345.628 117.176 346.138 116.266C346.168 115.996 346.198 115.726 346.218 115.456C346.508 114.906 346.138 114.246 346.518 113.716V113.736C346.868 113.246 346.448 112.606 346.808 112.116C346.928 111.316 347.048 110.516 347.168 109.706C347.358 108.696 347.308 107.656 347.728 106.686C347.758 106.406 347.778 106.126 347.808 105.846C348.108 105.306 347.728 104.656 348.108 104.126L348.188 104.046L348.138 103.956C348.428 103.406 348.058 102.746 348.438 102.206C348.278 101.376 348.738 100.636 348.768 99.8364C348.958 98.8164 348.918 97.7664 349.328 96.7864C349.358 96.4964 349.378 96.2164 349.408 95.9264C349.708 95.3964 349.358 94.7564 349.678 94.2264C349.688 94.0764 349.708 93.9264 349.718 93.7664C349.898 92.7464 349.888 91.6964 350.268 90.7164C350.298 90.3464 350.328 89.9764 350.358 89.6064C350.638 89.0464 350.298 88.3764 350.658 87.8364L350.738 87.7564L350.688 87.6564C350.848 86.5464 350.868 85.4064 351.238 84.3364C351.258 84.0364 351.288 83.7364 351.308 83.4364C351.728 82.7264 351.138 81.8564 351.678 81.1664L351.658 81.2064C351.968 80.5764 351.528 79.8364 351.948 79.2264C351.688 78.3764 352.488 77.6664 352.278 76.8164C352.588 76.1664 352.178 75.4064 352.598 74.7664V74.7964C352.848 73.7364 352.608 72.5864 353.138 71.5664C353.168 71.1564 353.198 70.7564 353.228 70.3464C353.588 69.7264 353.138 68.9864 353.528 68.3664C353.628 68.2964 353.638 68.2164 353.558 68.1264C353.818 66.9464 353.598 65.6764 354.118 64.5364C354.148 64.1664 354.178 63.7964 354.198 63.4264C354.468 62.8664 354.158 62.2164 354.468 61.6564C354.488 61.4864 354.498 61.3164 354.518 61.1464C354.678 59.7164 354.768 58.2664 355.138 56.8664C355.248 55.9464 355.368 55.0264 355.478 54.0964C355.808 53.4564 355.378 52.7064 355.768 52.0764L355.848 51.9764L355.788 51.8564C355.968 50.4364 356.008 48.9964 356.378 47.6064C356.498 46.5664 356.618 45.5264 356.738 44.4864C357.088 43.8564 356.668 43.1264 357.018 42.4964C357.038 42.3364 357.048 42.1664 357.068 42.0064C357.288 40.3664 357.348 38.7064 357.718 37.0864V37.1164C357.998 36.5964 357.688 35.9964 357.948 35.4764C357.978 35.0964 358.008 34.7164 358.028 34.3364C358.298 33.7864 358.008 33.1564 358.278 32.5964C358.298 32.3064 358.318 32.0264 358.348 31.7364C358.708 30.9864 358.218 30.1364 358.648 29.3964L358.728 29.3064L358.668 29.2064C358.958 26.8264 359.028 24.4164 359.558 22.0664C359.578 21.7864 359.608 21.5064 359.628 21.2264C359.898 20.6864 359.628 20.0664 359.858 19.5164C359.888 19.1164 359.908 18.7164 359.938 18.3164C360.268 17.6864 359.898 16.9664 360.198 16.3264C360.218 15.9564 360.238 15.5964 360.268 15.2264C360.568 14.5564 360.218 13.7964 360.538 13.1264C360.548 12.9364 360.568 12.7564 360.578 12.5664C360.958 11.7164 360.458 10.7764 360.878 9.92638C360.878 9.76638 360.888 9.61638 360.898 9.45638C361.258 8.57638 360.778 7.60638 361.208 6.73638L361.268 6.65638L361.208 6.57638C361.588 5.59638 361.068 4.51638 361.518 3.54638L361.588 3.46638L361.528 3.37638C361.728 1.90305 362.602 1.16638 364.148 1.16638C397.218 1.16638 430.278 1.16638 463.348 1.16638C464.775 1.16638 465.362 1.85638 465.108 3.23638C465.088 3.52638 465.058 3.82638 465.038 4.11638C464.698 4.74638 465.108 5.48638 464.758 6.11638C464.738 6.28638 464.728 6.45638 464.708 6.62638C464.478 7.83638 464.678 9.10638 464.158 10.2664C464.128 10.6464 464.098 11.0264 464.068 11.4164C463.748 12.0664 464.168 12.8264 463.778 13.4664L463.698 13.5564L463.758 13.6664C463.578 14.8764 463.628 16.1164 463.208 17.2864C463.178 17.6864 463.148 18.0764 463.118 18.4764C462.738 19.2064 463.278 20.0664 462.788 20.7864V20.7564C462.458 21.3764 462.898 22.1064 462.508 22.7164C462.408 22.7864 462.398 22.8664 462.478 22.9464C462.178 23.4764 462.488 24.0864 462.238 24.6264L462.298 24.6464Z" fill="white"/>
<path d="M565.178 1.30638C566.168 3.22638 566.108 5.47638 567.088 7.40638C567.338 8.16638 567.518 8.94638 567.708 9.72638C567.898 11.8164 568.758 13.7264 569.208 15.7564C569.728 16.0364 569.378 16.6264 569.638 16.9964C569.568 17.8064 569.928 18.5264 570.148 19.2764C570.718 19.9364 570.638 20.8164 570.888 21.5764C570.888 21.9964 570.778 22.4264 571.108 22.7864C571.668 23.4564 571.598 24.3264 571.848 25.0964C571.848 25.6264 571.768 26.1664 572.228 26.5764C572.528 27.2264 572.678 27.9164 572.808 28.6164C573.238 31.7364 574.338 34.6964 575.118 37.7364C576.388 42.6964 577.858 47.6064 579.248 52.5364C579.298 52.7264 579.458 52.8964 579.558 53.0764C579.898 53.7164 580.018 54.4164 580.158 55.1164C580.158 55.6464 580.088 56.1864 580.548 56.5864C580.848 57.2164 580.958 57.9064 581.138 58.5664C581.118 59.3464 581.408 60.0564 581.658 60.7764C582.208 61.0464 581.848 61.6464 582.108 62.0164C582.818 65.4964 583.818 68.8864 585.008 72.2264C585.328 72.8564 585.438 73.5464 585.608 74.2164C585.588 74.9964 585.878 75.7064 586.138 76.4164C586.678 76.6864 586.318 77.2864 586.598 77.6464C586.538 78.4664 586.828 79.1864 587.228 79.8764C587.578 80.5064 587.688 81.2164 587.838 81.9064C587.838 82.4364 587.778 82.9864 588.238 83.3864C588.448 84.0164 588.708 84.6364 588.818 85.3064C589.108 87.5364 589.978 89.5964 590.598 91.7364C591.218 92.3664 591.068 93.2564 591.368 93.9964C591.668 95.9564 592.358 97.8164 593.008 99.6764C593.318 100.296 593.418 100.986 593.608 101.646C593.898 103.856 594.768 105.906 595.388 108.026C595.968 108.276 595.588 108.896 595.858 109.256C595.818 110.076 596.078 110.806 596.518 111.486C596.848 112.116 596.948 112.806 597.118 113.486C597.438 115.446 598.018 117.326 598.778 119.156C599.128 120.116 599.458 121.086 599.678 122.086C599.658 122.876 599.918 123.596 600.238 124.296C600.788 124.846 600.738 125.606 600.948 126.276C601.288 126.886 601.408 126.236 601.618 126.166C601.868 125.806 602.158 125.496 602.488 125.226C605.388 121.596 608.298 117.976 611.198 114.346C611.518 113.926 611.868 113.526 612.168 113.096C614.828 109.786 617.488 106.466 620.148 103.156C620.478 102.756 620.818 102.366 621.098 101.916C622.698 99.8964 624.298 97.8664 625.898 95.8464C626.138 95.4864 626.438 95.1764 626.758 94.8864C629.878 90.8264 632.998 86.7664 636.128 82.6964C639.428 78.3964 642.738 74.0964 646.038 69.7964C647.018 68.5164 647.948 67.1964 649.008 65.9764C649.368 65.5564 649.378 65.2864 649.178 64.8764C648.828 64.2964 648.598 63.6564 648.268 63.0664C647.828 62.1864 647.398 61.2964 646.958 60.4164C646.658 60.0264 646.558 59.5464 646.358 59.1064C645.918 58.2664 645.478 57.4264 645.038 56.5764C644.778 56.2064 644.678 55.7664 644.428 55.3964C644.088 54.7264 643.758 54.0564 643.418 53.3864C643.148 52.8064 642.768 52.2864 642.558 51.6764C641.998 50.6564 641.448 49.6264 640.888 48.6064C640.618 48.2464 640.518 47.7864 640.278 47.4064C637.828 42.9064 635.378 38.4164 632.928 33.9164C632.588 33.5764 632.558 33.0764 632.288 32.6964C631.858 31.9264 631.428 31.1664 630.988 30.3964C630.708 30.0464 630.618 29.5864 630.368 29.2164C627.918 24.8264 625.458 20.4264 623.008 16.0364C622.688 15.6964 622.658 15.2064 622.378 14.8364C621.948 14.0664 621.508 13.2964 621.078 12.5264C620.808 12.1664 620.708 11.7164 620.458 11.3464C620.018 10.5664 619.588 9.78638 619.148 9.01638C618.888 8.65638 618.788 8.20638 618.538 7.83638C618.108 7.05638 617.678 6.27638 617.238 5.50638C616.958 5.14638 616.858 4.68638 616.618 4.30638C616.098 3.36638 615.568 2.43638 614.978 1.37638H626.028C626.378 1.53638 626.748 1.51638 627.128 1.51638C634.718 1.51638 642.318 1.51638 649.908 1.51638C650.278 1.51638 650.658 1.53638 651.008 1.37638C654.598 1.62638 658.188 1.37638 661.778 1.32638C662.668 1.32638 663.158 1.58638 663.458 2.35638C664.038 2.72638 663.908 3.44638 664.238 3.93638C664.398 4.73638 664.708 5.47638 665.158 6.15638C665.588 6.48638 665.608 7.01638 665.838 7.44638C665.868 8.19638 666.328 8.75638 666.678 9.37638C667.208 10.0264 667.398 10.8364 667.768 11.5664C667.918 12.5464 668.428 13.3564 668.968 14.1464C669.438 14.4564 669.448 15.0064 669.668 15.4464C670.568 17.9764 671.968 20.2664 673.128 22.6764C673.558 23.5564 673.998 24.4364 674.438 25.3164C674.978 25.8464 675.128 26.5764 675.438 27.2264C676.748 30.1864 678.048 33.1564 679.358 36.1164C679.608 36.6864 679.858 37.2464 680.208 38.0464C680.868 36.9764 681.408 36.0264 682.018 35.1064C686.678 28.1664 691.538 21.3564 696.298 14.4864C698.988 10.6064 701.828 6.81638 704.108 2.65638C704.628 1.70638 705.278 1.27638 706.458 1.31638C709.158 1.40638 711.868 1.60638 714.568 1.36638C714.918 1.52638 715.288 1.50638 715.668 1.50638C722.728 1.50638 729.788 1.50638 736.848 1.50638C737.218 1.50638 737.588 1.52638 737.948 1.36638C741.858 1.63638 745.758 1.24638 749.848 1.37638C747.798 4.15638 745.808 6.86638 743.818 9.56638C743.578 10.0864 743.218 10.5064 742.788 10.8764C740.328 13.9664 737.858 17.0364 735.418 20.1364C730.858 25.9364 726.318 31.7464 721.788 37.5664C721.538 37.8964 721.348 38.2764 721.128 38.6264C720.888 39.1364 720.528 39.5664 720.098 39.9364C717.138 43.3464 714.478 46.9864 711.778 50.6064C710.408 52.4464 708.808 54.1264 707.688 56.1564C707.488 56.7064 707.088 57.1064 706.678 57.4964C703.928 60.7364 701.588 64.2764 699.068 67.6864C698.438 68.5364 699.358 69.0564 699.678 69.6864C700.138 70.1864 700.428 70.7864 700.648 71.4264C702.318 75.2264 704.318 78.8664 706.378 82.4664C706.868 82.9464 707.138 83.5664 707.368 84.1964C707.738 85.2964 708.248 86.3164 708.948 87.2564C709.408 87.5464 709.388 88.1064 709.658 88.5064C710.058 89.5264 710.508 90.5264 711.188 91.4064C711.668 91.8764 711.898 92.5064 712.178 93.0964C713.278 95.7664 714.798 98.2064 716.278 100.676C716.788 100.946 716.748 101.526 717.008 101.936C719.408 106.876 722.268 111.566 724.908 116.366C726.968 120.116 729.168 123.786 731.308 127.486C731.828 127.936 732.018 128.576 732.318 129.156C733.588 131.906 735.148 134.496 736.748 137.066C737.258 137.516 737.438 138.156 737.758 138.726C737.758 140.276 736.468 139.046 735.988 139.556C734.998 139.276 733.978 139.446 732.978 139.426C727.128 139.346 721.278 139.556 715.428 139.316H711.268C706.028 139.546 700.788 139.346 695.548 139.426C694.338 139.446 693.118 139.256 691.908 139.566C691.028 139.336 690.158 139.486 689.278 139.566C688.558 139.256 688.548 138.516 688.278 137.926C687.748 136.776 687.218 135.626 686.688 134.486C686.358 134.036 686.368 133.426 686.008 132.986C685.598 132.106 685.178 131.216 684.768 130.336C684.438 129.886 684.448 129.276 684.088 128.846C683.008 126.576 681.918 124.306 680.838 122.026C680.488 121.446 680.248 120.806 679.928 120.206C678.848 117.936 677.778 115.676 676.698 113.406C676.348 112.786 675.988 112.176 675.778 111.496C674.078 107.876 672.388 104.266 670.688 100.646C670.348 99.8764 669.958 99.1364 669.718 98.3364C669.308 97.6064 669.188 96.2964 668.488 96.2364C667.598 96.1464 667.368 97.4364 666.898 98.1564C661.098 106.916 654.788 115.326 648.578 123.796C648.428 123.996 648.348 124.246 648.238 124.476C648.068 125.056 647.648 125.446 647.228 125.836C644.178 129.556 641.478 133.536 638.788 137.516C637.888 138.856 637.028 139.766 635.348 139.586C634.198 139.286 633.028 139.466 631.868 139.446C626.788 139.366 621.708 139.576 616.628 139.336C615.238 139.336 613.848 139.336 612.468 139.336C607.018 139.566 601.568 139.366 596.108 139.446C595.108 139.456 594.098 139.286 593.108 139.586C587.618 139.016 582.118 139.346 576.628 139.296C571.428 139.246 566.238 139.296 561.038 139.276C560.488 139.276 559.858 139.536 559.408 138.976C559.158 137.966 558.968 136.956 558.808 135.926C558.558 135.376 558.398 134.806 558.478 134.186C558.058 133.706 558.528 133.046 558.138 132.556C557.388 129.266 556.648 125.976 555.898 122.686C555.568 121.846 555.478 120.956 555.268 120.086C554.988 119.716 554.948 119.296 554.958 118.856C554.608 118.026 554.538 117.126 554.308 116.266C554.038 115.896 553.988 115.466 553.978 115.016C553.728 114.246 553.538 113.466 553.368 112.676L552.998 111.176C552.598 110.476 552.618 109.666 552.378 108.926C551.858 107.016 551.328 105.106 550.808 103.196C550.478 102.826 550.688 102.306 550.478 101.906C550.268 101.166 550.068 100.426 549.858 99.6864C549.518 99.1264 548.968 99.1964 548.438 99.1964C532.598 99.1964 516.768 99.1964 500.928 99.1964C500.658 99.1964 500.398 99.1964 500.148 99.3264C499.088 100.686 498.378 102.236 497.698 103.796C497.468 104.226 497.458 104.776 497.008 105.086C496.468 105.836 495.998 106.616 495.748 107.516C495.518 108.136 495.228 108.726 494.788 109.246C492.658 113.016 490.618 116.826 488.748 120.736C488.438 121.386 488.298 122.136 487.728 122.646C487.188 123.396 486.718 124.176 486.468 125.076C486.238 125.706 485.948 126.296 485.508 126.806C483.498 130.366 481.558 133.966 479.798 137.656C479.508 138.216 479.448 138.906 478.848 139.266H431.998C434.458 135.436 436.838 131.736 439.218 128.046C439.658 127.606 439.778 126.956 440.188 126.496C442.528 122.756 444.868 119.026 447.208 115.286C447.568 114.916 447.688 114.376 448.098 114.036C448.658 113.066 449.208 112.106 449.768 111.136C450.128 110.766 450.238 110.216 450.658 109.886C452.068 107.536 453.468 105.176 454.878 102.826C455.308 102.376 455.458 101.756 455.828 101.266C458.088 97.5164 460.338 93.7564 462.618 90.0164C464.878 86.3064 467.218 82.6364 469.458 78.9064C472.518 73.8164 475.518 68.6864 478.538 63.5764C478.948 63.1064 479.118 62.4864 479.488 61.9964C481.198 59.1064 482.918 56.2164 484.628 53.3264C487.078 49.1864 489.518 45.0464 491.968 40.9064C492.378 40.4364 492.548 39.8264 492.908 39.3264C494.408 36.7664 495.898 34.1964 497.398 31.6364C497.818 31.1764 497.988 30.5664 498.328 30.0664C499.938 27.2964 501.538 24.5264 503.148 21.7564C503.548 21.2864 503.738 20.6764 504.078 20.1664C504.618 19.2064 505.158 18.2464 505.698 17.2864C506.098 16.8064 506.288 16.2064 506.638 15.6964C509.098 11.3264 511.558 6.95638 514.008 2.59638C514.378 2.21638 514.468 1.61638 514.958 1.32638C515.348 1.08638 515.788 1.17638 516.208 1.17638C532.098 1.17638 547.998 1.17638 563.888 1.17638C564.308 1.17638 564.738 1.09638 565.148 1.29638L565.178 1.30638ZM516.088 70.0364C525.188 70.0364 534.288 69.9964 543.398 70.0764C544.898 70.0864 544.978 69.6664 544.668 68.4064C542.598 59.9064 540.588 51.3864 538.548 42.8764C537.608 38.9564 536.648 35.0364 535.628 30.7964C528.488 44.0164 521.518 56.9164 514.438 70.0464H516.098L516.088 70.0364Z" fill="white"/>
<path d="M295.698 1.28638C300.158 5.00638 304.618 8.72638 309.088 12.4364C314.338 16.7864 319.478 21.2864 324.938 25.3664C327.528 27.3064 328.048 29.4464 328.048 32.4364C327.968 91.4864 327.988 150.526 327.988 209.576C327.988 210.266 327.988 210.956 327.998 211.646C326.678 212.036 325.298 211.536 323.978 211.936C323.348 211.896 322.718 211.816 322.088 211.816C275.268 211.826 228.448 211.836 181.628 211.906C179.968 211.906 179.688 211.456 179.688 209.906C179.728 140.896 179.728 71.8964 179.688 2.88638C179.688 1.14638 180.208 0.866382 181.788 0.876382C199.628 0.976382 217.478 0.996382 235.318 1.02638C235.788 1.02638 236.268 0.956382 236.738 0.916382C237.358 1.16638 237.998 1.04638 238.638 1.04638C257.098 1.04638 275.558 1.04638 294.018 1.06638C294.578 1.06638 295.188 0.856382 295.708 1.26638L295.698 1.28638ZM204.948 184.716C204.948 185.876 205.108 186.346 206.458 186.346C238.258 186.306 270.048 186.306 301.848 186.346C302.998 186.346 303.378 186.126 303.368 184.876C303.328 137.526 303.338 90.1764 303.358 42.8364C303.358 41.9664 303.118 41.3764 302.478 40.7764C297.308 36.0164 292.158 31.2364 287.038 26.4264C286.328 25.7564 285.618 25.4964 284.648 25.4964C258.658 25.5264 232.668 25.5264 206.678 25.4864C205.298 25.4864 204.928 25.7764 204.938 27.2064C204.988 53.4364 204.978 79.6664 204.978 105.886C204.978 132.106 204.978 158.446 204.958 184.726L204.948 184.716Z" fill="white"/>
<path d="M1080.45 174.386C1077.84 176.636 1075.14 178.766 1071.97 180.196C1067.71 182.106 1063.35 183.736 1058.74 184.586C1058.25 184.986 1057.6 184.556 1057.1 184.906L1057.12 184.886C1056.42 185.376 1055.57 184.816 1054.87 185.226H1054.89C1054.07 185.686 1053.13 185.136 1052.31 185.536L1052.33 185.516C1050.62 186.026 1048.84 185.426 1047.12 185.846C1043.78 185.846 1040.45 185.846 1037.11 185.846C1035.7 185.566 1034.27 185.766 1032.85 185.716C1030.82 185.646 1028.8 185.406 1026.78 185.196L1026.81 185.216C1025.88 184.806 1024.83 185.376 1023.91 184.886H1023.93C1023.1 184.486 1022.16 185.046 1021.34 184.576L1021.24 184.516L1021.14 184.566C1020.49 184.236 1019.74 184.656 1019.1 184.276L1018.99 184.216L1018.87 184.256C1018.24 183.906 1017.48 184.356 1016.86 183.956L1016.75 183.896L1016.63 183.936C1016.11 183.616 1015.46 183.996 1014.95 183.646C1008.69 182.776 1002.56 181.256 996.418 179.816C996.138 178.756 996.178 177.686 996.398 176.626C996.418 176.026 996.428 175.426 996.448 174.826C996.808 173.636 996.348 172.386 996.718 171.196C996.738 170.596 996.748 169.996 996.768 169.386C997.128 168.196 996.658 166.946 997.048 165.766L997.088 163.966C997.448 162.776 996.978 161.526 997.368 160.336C997.378 159.836 997.398 159.336 997.408 158.836C997.788 157.546 997.288 156.196 997.688 154.906C997.698 154.406 997.718 153.916 997.728 153.416C997.978 152.866 997.758 152.266 997.898 151.716C997.998 151.316 998.218 151.016 998.638 151.486C1006.5 154.756 1014.63 157.066 1023.04 158.416C1023.61 158.506 1024.2 158.436 1024.79 158.446C1025.42 158.786 1026.17 158.366 1026.8 158.726C1027.19 158.736 1027.59 158.756 1027.98 158.766C1029.05 159.136 1030.2 158.656 1031.28 159.046C1032.88 159.176 1034.48 159.196 1036.08 159.046C1036.83 158.696 1037.67 159.106 1038.42 158.776C1043.25 158.586 1047.38 156.716 1051 153.606C1051.48 153.196 1051.92 152.736 1052.38 152.296C1052.73 151.906 1053.05 151.506 1053.35 151.086C1053.98 150.136 1054.62 149.186 1055.25 148.236C1055.62 147.736 1055.84 147.146 1056.18 146.626C1056.4 146.086 1056.62 145.546 1056.85 145.006C1057.15 144.516 1057.22 143.926 1057.5 143.426C1058.45 140.686 1059.05 137.856 1059.73 135.046C1060.13 134.606 1059.65 133.956 1060.08 133.516C1060.07 132.786 1060.15 132.076 1060.4 131.386C1060.72 130.856 1060.32 130.206 1060.7 129.686C1060.78 129.616 1060.78 129.546 1060.72 129.466C1060.69 128.766 1061.47 127.886 1060.3 127.416C1060.21 127.496 1060.11 127.576 1060.02 127.646C1059.68 128.106 1059.22 128.416 1058.73 128.706C1053.22 133.226 1047.07 136.526 1040.24 138.576C1035.62 139.766 1030.92 140.286 1026.16 140.016C1024.24 139.906 1022.29 139.776 1020.43 139.196L1020.46 139.216C1019.59 139.026 1018.69 138.966 1017.87 138.566L1017.9 138.586C1017.24 138.426 1016.56 138.296 1015.94 137.996C1015.61 137.896 1015.22 138.006 1014.97 137.666C1014.23 137.316 1013.47 137.026 1012.73 136.676C1010.08 135.506 1007.71 133.916 1005.62 131.916C1004.86 131.256 1004.16 130.526 1003.47 129.786C999.008 125.006 996.308 119.326 994.918 112.986C994.788 112.386 994.388 111.826 994.558 111.166C994.068 110.466 994.628 109.606 994.218 108.896V108.916C993.758 108.126 994.328 107.196 993.888 106.396C993.438 105.966 994.178 105.526 993.888 105.086C993.638 102.636 993.628 100.196 993.888 97.7464C993.898 97.3564 993.908 96.9764 993.928 96.5864C994.248 95.9364 993.848 95.1864 994.208 94.5464C994.218 94.2564 994.228 93.9664 994.238 93.6764C994.548 93.1464 994.188 92.5164 994.518 91.9864C994.538 91.8064 994.548 91.6364 994.568 91.4564C994.878 90.9264 994.478 90.2664 994.878 89.7464V89.7664C995.228 89.2764 994.798 88.6264 995.188 88.1464C995.258 88.0764 995.258 87.9964 995.208 87.9064C995.558 87.3864 995.098 86.7164 995.548 86.2164C998.018 74.8464 1002.92 64.7164 1010.84 56.1264C1011.21 55.7664 1011.51 55.3464 1011.84 54.9364C1018.44 48.3564 1026.04 43.3364 1034.89 40.2664C1036.26 39.7864 1037.6 39.2264 1038.96 38.7064C1039.69 38.3764 1040.49 38.2864 1041.26 38.0564L1041.23 38.0764C1043.63 37.2664 1046.09 36.7664 1048.6 36.4364L1048.58 36.4564C1049.19 35.9964 1049.95 36.4864 1050.58 36.1264C1050.66 36.1864 1050.74 36.1764 1050.81 36.1064C1051.44 35.7064 1052.19 36.1464 1052.83 35.8064C1052.91 35.8664 1052.98 35.8664 1053.05 35.7964C1053.9 35.3564 1054.86 35.8664 1055.72 35.4864C1055.79 35.5564 1055.86 35.5564 1055.93 35.4864C1057.19 34.9964 1058.54 35.5864 1059.81 35.1664L1059.79 35.1864C1060.15 34.8564 1060.6 34.9964 1061.01 34.9964C1066.37 34.9964 1071.74 34.8864 1077.09 35.3064C1077.31 35.3264 1077.51 35.3564 1077.67 35.5064L1077.65 35.4864C1078.48 35.8664 1079.41 35.3764 1080.24 35.7764C1080.53 35.7864 1080.81 35.7964 1081.1 35.8164C1081.96 36.1964 1082.92 35.6664 1083.77 36.1264C1083.84 36.1964 1083.91 36.1964 1083.98 36.1264C1084.73 36.4864 1085.58 36.0064 1086.32 36.4264C1086.39 36.4964 1086.46 36.5064 1086.54 36.4464C1087.28 36.8064 1088.14 36.3164 1088.87 36.7564H1088.85C1089.56 37.1564 1090.4 36.6164 1091.11 37.0764H1091.09C1091.8 37.4864 1092.65 36.9264 1093.34 37.4064H1093.32C1095.24 37.7164 1097.2 37.8864 1099.09 38.3864L1099.06 38.3664C1101.31 38.7964 1103.6 39.0464 1105.78 39.7864C1106.16 40.0664 1106.59 40.0064 1107.02 39.9564C1107.5 40.3464 1108.25 39.7464 1108.66 40.4064C1109.59 40.6564 1110.5 40.9764 1111.48 40.9264C1112.42 41.1664 1112.67 41.6564 1112.04 42.4664C1111.76 42.8464 1111.83 43.2764 1111.86 43.6964C1111.52 44.2064 1111.95 44.8664 1111.54 45.3664V45.3464C1111.13 45.7964 1111.76 46.5564 1111.09 46.9364C1110.79 47.4064 1110.85 47.9264 1110.89 48.4464C1110.53 48.9564 1111.11 49.7064 1110.44 50.1364C1110.15 50.5164 1110.24 50.9564 1110.26 51.3764C1109.91 51.8864 1110.35 52.5464 1109.94 53.0464C1108.83 57.3364 1107.93 61.6664 1107.38 66.0664C1106.98 66.5464 1107.59 67.2964 1106.94 67.6964C1105.95 72.7764 1104.79 77.8264 1104.19 82.9764C1103.8 83.4564 1104.39 84.1964 1103.77 84.6164C1103.49 85.8664 1103.16 87.0964 1103.23 88.3964C1102.85 88.8864 1103.44 89.6264 1102.8 90.0464C1102.45 91.8364 1102.02 93.6064 1101.96 95.4464C1101.54 96.0364 1102.2 96.8764 1101.5 97.3964C1101.21 99.1964 1100.71 100.956 1100.68 102.796C1100.26 103.376 1100.92 104.216 1100.22 104.746C1099.93 106.646 1099.38 108.496 1099.39 110.436C1099.01 111.056 1099.54 111.826 1099.04 112.426L1099.06 112.396C1098.68 112.996 1099.23 113.766 1098.71 114.336L1098.74 114.306C1097.67 120.996 1096.59 127.686 1095.5 134.376C1094.73 139.076 1094.12 143.806 1093.29 148.506L1093.31 148.476C1093.15 150.116 1092.8 151.716 1092.33 153.296L1092.35 153.266C1091.97 154.326 1092.02 155.516 1091.33 156.476C1090.97 157.746 1090.28 158.916 1090.11 160.246C1089.85 160.786 1089.89 161.466 1089.36 161.896C1087.31 166.126 1084.76 170.016 1081.5 173.416C1081.25 173.816 1080.94 174.146 1080.52 174.376L1080.45 174.386ZM1056.87 64.9964C1036.26 67.5464 1028.63 86.9364 1030.65 100.376C1031.6 106.686 1035.63 111.416 1040.97 112.396C1046.56 113.426 1051.65 112.146 1056.08 108.566C1060.98 104.606 1063.64 99.1764 1065.7 93.4164C1068.79 84.8164 1070.12 75.8364 1071.49 66.8564C1071.64 65.8564 1071.12 65.6864 1070.37 65.5764C1067.48 65.1364 1064.58 64.7064 1061.64 64.6964C1060.05 64.7964 1058.45 64.8064 1056.87 64.9964Z" fill="white"/>
<path d="M947.478 35.1864C947.598 34.2564 947.718 33.3364 947.838 32.4064C948.188 31.7764 947.718 31.0164 948.158 30.4064V30.4264C948.518 29.8264 948.068 29.0964 948.448 28.4864L948.808 25.4064C949.098 24.8664 948.768 24.2364 949.068 23.7064C949.088 23.5164 949.098 23.3264 949.118 23.1464C949.288 21.8464 949.348 20.5264 949.688 19.2464C949.818 17.9864 949.948 16.7364 950.078 15.4764C950.388 14.9564 950.058 14.3464 950.328 13.8164C950.358 13.4264 950.378 13.0464 950.408 12.6564C950.728 12.0064 950.318 11.2564 950.698 10.6064C950.768 10.5264 950.778 10.4464 950.718 10.3664C951.138 9.4264 950.528 8.35639 951.068 7.42639L951.038 7.4564C951.408 6.7364 950.908 5.89639 951.338 5.17639C951.408 5.10639 951.418 5.03639 951.358 4.96639C951.638 4.43639 951.348 3.8164 951.598 3.2764C952.008 2.5464 951.028 1.0564 952.808 1.0664C955.988 1.3664 959.178 1.1064 962.358 1.2064C963.368 1.2364 964.378 1.0864 965.378 1.3064C969.928 1.3364 974.478 1.3664 979.028 1.3964C982.228 1.7064 985.438 1.4364 988.638 1.5364C989.198 1.5564 989.798 1.3364 990.318 1.7264L990.268 1.6964C990.568 2.4864 990.098 3.1764 989.968 3.9064V3.88639C989.758 5.7164 989.388 7.5264 989.008 9.3364V9.3164C988.798 10.4964 988.808 11.7164 988.358 12.8464L988.378 12.8264C988.168 14.0064 988.158 15.2264 987.728 16.3664L987.748 16.3464C987.528 17.5264 987.518 18.7364 987.098 19.8764V19.8564C986.718 20.4564 987.238 21.2064 986.768 21.7964L986.788 21.7764C986.528 22.9464 986.468 24.1564 986.118 25.3064L986.138 25.2764C985.658 27.5164 985.518 29.8164 984.878 32.0264C984.798 32.0864 984.788 32.1464 984.858 32.2264C984.528 32.8664 984.978 33.6364 984.528 34.2464L984.548 34.2164C984.198 34.7064 984.658 35.3664 984.208 35.8364L984.228 35.8164C983.848 36.4164 984.378 37.1764 983.878 37.7564L983.898 37.7264C983.718 38.8064 983.588 39.8964 983.268 40.9564V40.9364C983.008 42.2064 983.168 43.5564 982.598 44.7764L982.618 44.7464C982.418 45.9264 982.398 47.1464 981.978 48.2864V48.2664C981.608 48.8664 982.118 49.6164 981.658 50.2064V50.1864C981.278 50.7864 981.818 51.5464 981.328 52.1264L981.348 52.0964C981.008 52.5864 981.458 53.2464 981.018 53.7264L981.038 53.7064C980.818 54.9864 980.828 56.3164 980.368 57.5564L980.388 57.5264C980.088 59.4564 979.898 61.4064 979.398 63.2964L979.428 63.2664C979.208 64.5564 979.148 65.8664 978.768 67.1264L978.788 67.0964C978.488 69.0264 978.298 70.9764 977.798 72.8664L977.818 72.8364C977.308 76.1464 976.858 79.4764 976.198 82.7664L976.218 82.7364C975.828 83.4464 976.368 84.2964 975.878 84.9964L975.898 84.9664C975.688 86.2564 975.598 87.5664 975.258 88.8264V88.8064C974.968 90.9464 974.808 93.1064 974.298 95.2164L974.318 95.1964C973.928 98.1864 973.598 101.196 973.008 104.156L973.028 104.126C972.628 104.946 973.188 105.896 972.688 106.706L972.708 106.676C972.368 110.546 971.638 114.376 971.228 118.246C970.828 122.056 970.278 125.856 969.768 129.666C969.458 131.996 969.128 134.356 969.058 136.726C969.038 137.516 968.888 138.266 968.468 138.946C965.878 138.816 963.288 138.776 960.708 138.946C960.148 138.696 959.558 138.816 958.978 138.816C951.168 138.816 943.358 138.806 935.548 138.816C934.468 138.816 933.838 138.616 934.428 137.386L934.408 137.416C934.718 134.176 935.358 130.986 935.758 127.766C935.808 127.386 935.888 126.966 935.258 127.126C931.278 130.796 927.018 134.096 922.248 136.696C921.748 137.046 921.128 137.086 920.608 137.366C919.868 137.696 919.128 138.026 918.398 138.356C913.458 140.356 908.248 140.996 902.988 141.336C902.898 141.336 902.808 141.246 902.728 141.166C901.908 141.166 901.098 141.166 900.278 141.166C899.208 140.786 898.058 141.276 896.988 140.886C888.148 139.926 880.578 136.436 874.628 129.706C874.258 129.126 873.718 128.686 873.338 128.116C868.378 121.716 865.838 114.386 865.038 106.396C864.598 105.436 865.108 104.386 864.738 103.416C864.728 102.276 864.708 101.136 864.698 100.006C864.478 99.3664 864.468 98.7364 864.698 98.0964C864.708 97.4864 864.718 96.8764 864.728 96.2664C865.048 95.6264 864.698 94.9164 864.968 94.2764C864.998 93.6664 865.018 93.0664 865.048 92.4564C865.378 91.8164 864.968 91.0664 865.338 90.4364C865.558 89.6264 865.208 88.7364 865.688 87.9664C866.008 87.4464 865.618 86.7964 865.978 86.2764C866.718 81.2564 868.218 76.4364 870.008 71.7064C871.018 69.0264 872.188 66.4064 873.648 63.9364C874.038 63.4464 874.238 62.8464 874.588 62.3364C877.208 57.7464 880.478 53.6564 884.188 49.9164C884.728 49.5164 885.208 49.0564 885.698 48.5964C891.398 43.3064 898.008 39.5864 905.388 37.1964C905.678 37.0964 905.958 36.9364 906.238 36.8064C910.228 35.5364 914.278 34.5264 918.478 34.2464C918.658 34.2364 918.848 34.2264 919.028 34.2164C919.888 33.8264 920.828 34.2964 921.688 33.9364C921.968 33.9364 922.258 33.9164 922.538 33.9164C926.658 33.6864 930.778 33.6464 934.908 33.9564C938.328 34.2064 941.738 34.5564 945.148 34.9964C945.898 35.0964 946.658 35.6464 947.458 35.1864H947.478ZM917.788 65.2564C905.268 72.5564 900.198 88.7564 902.168 100.196C903.048 105.326 905.328 109.666 910.268 112.116C916.708 115.306 925.218 113.396 930.308 107.636C932.228 105.466 933.778 103.056 934.988 100.436C940.398 88.6964 941.678 76.0564 943.068 63.4364C943.168 62.5664 942.758 62.3764 942.038 62.1964C939.498 61.5564 936.918 61.2464 934.778 61.2164C928.828 60.8964 922.518 62.4964 917.788 65.2564Z" fill="white"/>
<path d="M782.588 37.7564C782.998 37.5564 783.408 37.3464 783.818 37.1464C785.278 36.4864 786.768 35.8964 788.348 35.5364L788.318 35.5564C789.048 35.2164 789.848 35.1264 790.618 34.8964C791.978 34.5764 793.338 34.2464 794.698 33.9264C795.178 33.5264 795.828 33.9764 796.318 33.6064H796.298C796.888 33.1864 797.638 33.6764 798.238 33.2964H798.218C799.028 32.8264 799.978 33.3964 800.798 32.9764H800.778C805.818 32.3864 810.858 32.2764 815.918 32.6964C817.588 32.8364 819.268 32.8864 820.908 33.3164L820.888 33.2964C821.388 33.6364 822.028 33.2164 822.528 33.6064C822.598 33.6764 822.668 33.6864 822.748 33.6264C823.268 33.9564 823.928 33.5364 824.438 33.9464H824.418C824.878 34.3464 825.628 33.7264 826.008 34.3864C826.828 34.5964 827.618 34.9964 828.498 34.9064C829.258 35.1864 830.148 35.0664 830.798 35.6764C837.548 37.8964 843.448 41.4564 848.268 46.7264C848.748 47.0664 849.078 47.5164 849.338 48.0364C852.688 52.7464 854.808 57.9864 855.908 63.6364C856.618 64.1664 855.968 65.0064 856.368 65.6064C856.368 65.7864 856.388 65.9764 856.398 66.1564C856.808 67.0064 856.318 67.9564 856.688 68.8064C856.688 69.1964 856.708 69.5964 856.718 69.9864C856.978 71.7964 856.958 73.6064 856.738 75.4064C856.718 76.0064 856.708 76.6164 856.688 77.2164C856.348 77.9664 856.768 78.8064 856.418 79.5564C856.398 79.9464 856.388 80.3464 856.368 80.7364C855.998 81.4764 856.508 82.3364 856.048 83.0664V83.0464C855.718 83.5464 856.108 84.1664 855.778 84.6664C855.758 84.9464 855.738 85.2264 855.718 85.4964C855.368 86.0064 855.928 86.7564 855.278 87.1964C854.888 88.9264 854.458 90.6464 854.108 92.3764C853.928 93.2664 853.518 93.5764 852.598 93.5464C850.918 93.4864 849.228 93.5664 847.538 93.5764C846.978 93.3264 846.378 93.4464 845.808 93.4464C837.768 93.4464 829.738 93.4464 821.698 93.4364C821.118 93.4364 820.528 93.5364 819.958 93.3364C811.258 93.3064 802.558 93.2764 793.848 93.2564C791.498 93.0564 789.138 92.9864 786.788 93.2864C786.608 93.8064 786.628 94.3464 786.708 94.8864C787.098 96.0564 786.608 97.2964 786.998 98.4664C787.408 103.586 789.858 107.566 793.948 110.526C796.438 112.326 799.168 113.686 802.288 114.066C802.798 114.416 803.468 113.946 803.958 114.406L803.928 114.386C804.528 114.756 805.288 114.246 805.878 114.716L805.858 114.696C809.818 114.946 813.778 114.986 817.738 114.606C824.158 113.996 830.398 112.456 836.628 110.876L836.598 110.896C837.338 110.536 838.148 110.436 838.938 110.236C840.928 109.676 842.918 109.116 844.908 108.556C845.588 108.776 845.538 109.116 845.068 109.526C842.958 118.226 840.858 126.936 838.748 135.636C838.578 136.356 838.358 137.046 837.548 137.326C837.058 137.706 836.418 137.276 835.928 137.636H835.938C835.458 138.036 834.808 137.586 834.328 137.956H834.338C833.858 138.346 833.208 137.916 832.718 138.266L832.738 138.246C830.828 138.696 828.888 138.936 826.958 139.216L826.988 139.196C823.778 139.746 820.558 140.076 817.318 140.386C812.028 140.896 806.738 141.116 801.438 140.966C798.228 140.876 795.008 140.716 791.828 140.196C791.658 140.186 791.478 140.176 791.308 140.166C790.768 139.876 790.128 140.216 789.598 139.896C789.408 139.886 789.218 139.876 789.018 139.856C788.508 139.526 787.868 139.906 787.358 139.576C777.128 137.946 767.678 134.626 760.188 127.086C757.348 124.226 755.188 120.876 753.508 117.216C752.828 115.866 752.408 114.426 751.918 113.016L751.938 113.046C751.458 112.366 751.538 111.526 751.278 110.786L751.298 110.816C750.508 108.856 750.378 106.766 749.998 104.726L750.018 104.756C749.478 103.836 750.088 102.786 749.668 101.856L749.688 101.886C749.148 99.8064 749.438 97.6664 749.418 95.5864C749.398 93.2364 749.218 90.8364 749.668 88.4764C749.738 88.4064 749.738 88.3464 749.668 88.2764C749.918 86.1064 750.018 83.9064 750.638 81.7864L750.618 81.8064C751.048 79.0864 751.618 76.3964 752.578 73.8064L752.558 73.8364C752.958 72.2964 753.358 70.7464 754.108 69.3164C755.078 66.4064 756.358 63.6664 757.858 60.9864C759.348 58.3364 760.878 55.7464 762.748 53.3464C763.058 52.9064 763.418 52.5064 763.728 52.0664C768.078 46.7264 773.308 42.4664 779.378 39.2264C780.448 38.7164 781.468 38.0964 782.608 37.7164L782.588 37.7564ZM802.918 56.9164C795.048 59.6264 791.268 65.7164 789.318 73.3264C789.078 74.2564 789.698 74.2264 790.328 74.2364C800.128 74.3064 809.918 74.3764 819.718 74.4864C820.628 74.4864 820.938 74.1964 820.928 73.3064C820.928 71.2364 820.928 69.1664 820.608 67.1064C819.498 59.9764 815.178 56.2464 807.598 56.2264C806.228 56.1864 804.538 56.3664 802.908 56.9264L802.918 56.9164Z" fill="white"/>
<path d="M1156.58 41.2664C1159.19 39.9564 1162.04 39.3564 1164.8 38.4764C1165.14 38.3664 1165.47 38.2164 1165.81 38.0864C1169.09 37.2064 1172.43 36.6664 1175.82 36.4964C1176.21 36.4864 1176.61 36.4764 1177 36.4564C1180.94 36.2464 1184.88 36.1464 1188.82 36.5064L1188.8 36.4864C1189.84 36.9064 1190.99 36.3164 1192.02 36.8364L1191.99 36.8164C1192.7 37.2064 1193.56 36.6664 1194.25 37.1564L1194.22 37.1364C1195.83 37.4464 1197.47 37.6064 1199.04 38.1264L1199.01 38.1064C1199.77 38.3164 1200.56 38.4164 1201.28 38.7564L1201.25 38.7364C1201.9 38.9364 1202.62 38.9664 1203.2 39.3964L1203.17 39.3764C1204.25 39.8164 1205.44 39.9964 1206.37 40.7764C1209.43 42.4364 1212.46 44.1164 1215.02 46.5364C1217.98 49.3364 1220.19 52.6364 1221.9 56.2964C1222.89 57.8564 1223.23 59.6464 1223.64 61.4064L1223.62 61.3864C1225.77 70.0964 1224.73 78.6764 1222.65 87.2264L1222.67 87.1964C1222.35 88.4864 1222.31 89.8564 1221.59 91.0364C1221.3 91.9764 1220.94 92.9064 1220.74 93.8664C1220.46 95.2064 1219.82 96.0064 1218.34 95.8264C1217.78 95.5864 1217.18 95.6964 1216.6 95.6964C1208.99 95.6964 1201.37 95.6964 1193.76 95.6864C1193.18 95.6864 1192.59 95.7764 1192.02 95.5864C1183.11 95.5564 1174.19 95.5264 1165.28 95.5064C1162.28 95.3064 1159.28 95.2464 1156.29 95.5364C1156.25 95.8164 1156.22 96.0864 1156.18 96.3664C1155.97 98.1464 1155.97 99.9364 1156.18 101.716C1156.42 106.496 1158.59 110.156 1162.56 112.786C1163.28 113.286 1164.16 113.496 1164.82 114.096L1164.8 114.076C1165.59 114.326 1166.33 114.686 1167.06 115.056L1167.03 115.036C1172.91 117.046 1178.95 116.756 1185 116.296H1184.98C1185.69 115.846 1186.53 116.366 1187.25 115.986L1187.22 116.006C1187.91 115.496 1188.76 116.066 1189.46 115.646H1189.45C1189.94 115.256 1190.58 115.686 1191.07 115.336H1191.05C1191.52 114.916 1192.18 115.376 1192.67 115.016H1192.65C1193.12 114.586 1193.79 115.066 1194.28 114.686C1198.06 113.956 1201.8 113.096 1205.43 111.806C1206.52 111.526 1207.57 111.096 1208.67 110.886L1208.64 110.906C1209.13 110.576 1209.72 110.586 1210.26 110.406C1210.47 110.336 1210.96 110.246 1210.77 110.826C1210.43 111.056 1210.5 111.396 1210.52 111.716C1210.3 112.386 1210.36 113.146 1209.8 113.696C1207.81 119.966 1205.83 126.226 1203.85 132.496C1203.79 132.686 1203.82 132.916 1203.81 133.126C1203.52 133.876 1203.65 134.766 1203.03 135.406C1202.97 135.696 1202.9 135.986 1202.84 136.266C1202.41 138.436 1202.33 138.496 1199.27 138.916C1196 139.456 1192.73 139.996 1189.45 140.546C1188.82 140.926 1188.07 140.496 1187.44 140.836C1187.26 140.846 1187.07 140.856 1186.89 140.866C1186.25 141.226 1185.5 140.826 1184.85 141.146C1184.68 141.146 1184.51 141.156 1184.33 141.166C1183.37 141.596 1182.31 141.096 1181.34 141.466L1181.24 141.416L1181.14 141.476C1179.77 141.946 1178.32 141.396 1176.94 141.796L1176.97 141.776C1176.5 142.156 1175.95 141.966 1175.44 141.966C1171.73 141.986 1168.02 142.116 1164.32 141.926C1161.51 141.786 1158.67 141.696 1155.89 141.126L1155.92 141.146C1154.63 140.936 1153.32 140.856 1152.05 140.496L1152.08 140.516C1151.59 140.156 1150.93 140.626 1150.46 140.176L1150.49 140.196C1149.62 140.006 1148.74 139.896 1147.9 139.596C1145.86 139.386 1144 138.546 1142.13 137.826C1137.06 135.876 1132.47 133.106 1128.75 129.056C1128.35 128.486 1127.82 128.036 1127.44 127.456C1126.33 126.056 1125.29 124.606 1124.53 122.976C1124.14 122.396 1123.91 121.736 1123.6 121.116C1123.5 120.886 1123.4 120.666 1123.3 120.436C1123.02 119.916 1122.88 119.336 1122.69 118.786L1122.72 118.816C1122.26 118.246 1122.35 117.496 1122.05 116.876L1122.07 116.906C1121.54 115.646 1121.32 114.306 1121.08 112.976C1121.14 112.906 1121.13 112.836 1121.06 112.776C1120.67 112.266 1121.07 111.606 1120.75 111.076C1120.81 110.996 1120.8 110.926 1120.73 110.856C1120.39 109.926 1120.69 108.916 1120.4 107.976C1120.39 107.766 1120.38 107.546 1120.36 107.326C1120.14 104.676 1120.19 102.016 1120.34 99.3664C1120.34 99.2564 1120.34 99.1364 1120.34 99.0264C1120.2 98.4864 1120.11 97.9564 1120.4 97.4364C1120.4 97.2564 1120.41 97.0764 1120.42 96.9064C1120.73 96.2664 1120.39 95.5464 1120.66 94.8964C1120.68 94.5864 1120.7 94.2864 1120.73 93.9764C1121.15 93.1564 1120.57 92.1864 1121.08 91.3764L1121.06 91.4064C1121.44 88.4664 1122.09 85.5864 1123.01 82.7664L1122.98 82.7964C1123.23 81.6964 1123.54 80.6164 1123.97 79.5764L1123.95 79.6064C1124.38 78.4264 1124.67 77.1864 1125.21 76.0364C1125.41 75.4964 1125.62 74.9564 1125.82 74.4164C1126.15 73.9364 1126.16 73.3164 1126.5 72.8364C1126.59 72.6164 1126.68 72.3964 1126.77 72.1764C1127.07 71.5464 1127.3 70.8764 1127.72 70.2964C1127.94 69.8364 1128.15 69.3664 1128.37 68.9064C1128.64 68.5564 1128.71 68.1064 1128.97 67.7464C1130.91 64.0764 1133.07 60.5764 1135.75 57.3664C1137.95 54.7264 1140.21 52.1764 1142.76 49.8764C1143.19 49.5864 1143.58 49.2464 1143.97 48.9064C1147.1 46.2264 1150.66 44.2064 1154.26 42.2464C1155.01 41.8964 1155.77 41.5564 1156.54 41.2564L1156.58 41.2664ZM1174.97 77.0664C1177.26 77.0664 1179.54 77.0664 1181.83 77.0664C1184.12 77.0664 1186.41 77.0164 1188.69 77.1364C1189.89 77.1964 1190.3 76.7664 1190.37 75.6564C1190.51 73.4264 1190.65 71.1964 1190.39 68.9764C1189.76 63.6564 1186.81 60.2764 1181.97 59.5364C1178.55 59.0164 1175.19 59.3564 1172.03 60.9464C1166 63.9864 1162.57 69.1064 1160.41 75.2864C1159.97 76.5464 1160.04 77.0164 1161.57 76.9864C1166.03 76.8964 1170.5 76.9564 1174.97 76.9564V77.0664Z" fill="white"/>
<path d="M568.038 157.216C570.508 160.556 572.948 163.916 575.458 167.226C578.818 171.656 582.238 176.056 585.628 180.466C586.548 180.256 586.098 179.526 586.098 179.056C586.128 172.246 586.158 165.446 586.098 158.636C586.088 157.316 586.438 156.856 587.768 156.976C589.918 157.176 592.108 156.746 594.258 157.196C594.258 170.036 594.258 182.886 594.258 195.726C592.248 196.106 590.228 195.966 588.208 195.806C582.228 187.926 576.248 180.046 569.968 171.766V195.736C567.318 196.076 564.658 196.046 561.998 195.736C561.998 182.876 561.998 170.016 561.998 157.166C564.018 156.886 566.028 156.826 568.038 157.206V157.216Z" fill="white"/>
<path d="M834.848 194.146C832.538 195.176 830.058 195.616 827.608 196.146C827.058 196.406 826.438 196.116 825.898 196.386C825.088 196.416 824.268 196.446 823.458 196.476C822.608 196.636 821.758 196.636 820.908 196.476C816.738 196.536 812.818 195.426 809.348 193.236C804.328 190.076 801.338 185.486 800.708 179.486C800.488 178.936 800.758 178.326 800.488 177.786C800.488 176.906 800.488 176.016 800.488 175.136C800.758 174.596 800.488 173.986 800.708 173.436C801.858 163.966 808.828 157.596 819.008 156.546C819.218 156.526 819.428 156.486 819.638 156.456C820.918 156.276 822.188 156.296 823.468 156.456C826.438 156.776 829.358 157.336 832.128 158.506C832.818 158.796 833.228 159.066 832.778 160.006C832.088 161.446 831.628 163.006 831.098 164.526C830.818 165.326 830.288 165.376 829.658 165.086C827.628 164.126 825.468 163.686 823.248 163.506C822.118 163.296 820.978 163.286 819.848 163.506C814.158 163.706 809.488 168.136 808.778 174.056C808.218 178.716 809.118 182.986 812.808 186.276C814.988 188.216 817.488 189.406 820.468 189.426C821.738 189.646 823.008 189.636 824.278 189.426C826.878 189.426 827.038 189.296 826.998 186.746C826.978 185.396 827.188 184.036 826.858 182.696C824.708 182.326 822.548 182.566 820.388 182.556C819.428 182.556 819.038 182.296 819.138 181.306C819.328 179.446 818.828 177.546 819.408 175.706C824.558 175.706 829.708 175.706 834.858 175.706C835.228 175.906 835.118 176.256 835.118 176.556C835.118 182.136 835.118 187.726 835.118 193.306C835.118 193.606 835.228 193.956 834.848 194.146Z" fill="white"/>
<path d="M502.858 195.756C502.858 182.896 502.858 170.036 502.858 157.186C505.518 156.896 508.168 156.866 510.828 157.186C510.848 162.816 510.878 168.446 510.898 174.066C512.738 174.426 514.598 174.226 516.438 174.206C519.138 174.186 521.838 174.436 524.528 174.066C524.548 168.446 524.578 162.816 524.598 157.196C527.068 156.736 529.558 157.116 532.038 156.996C532.498 156.976 532.728 157.196 532.728 157.666C532.728 157.986 532.728 158.306 532.728 158.626C532.728 170.516 532.708 182.416 532.758 194.306C532.758 195.646 532.388 196.076 531.078 195.956C528.928 195.766 526.748 196.196 524.598 195.726C524.598 191.316 524.568 186.906 524.628 182.496C524.638 181.456 524.488 181.026 523.288 181.056C519.568 181.146 515.838 181.126 512.118 181.056C511.108 181.036 510.778 181.256 510.788 182.336C510.858 186.796 510.818 191.256 510.808 195.726C508.158 196.066 505.498 196.036 502.838 195.726L502.858 195.756Z" fill="white"/>
<path d="M419.408 189.106C419.408 191.316 419.408 193.536 419.408 195.746C419.148 195.996 418.808 195.936 418.498 195.936C411.008 195.936 403.528 195.936 396.038 195.936C395.728 195.936 395.398 195.996 395.128 195.746C395.128 182.886 395.128 170.026 395.128 157.176C395.508 156.876 395.948 156.996 396.358 156.996C403.388 156.996 410.418 157.016 417.448 156.966C418.648 156.966 419.038 157.286 418.958 158.486C418.858 159.916 418.868 161.356 418.958 162.796C419.018 163.816 418.628 164.046 417.668 164.036C413.358 163.996 409.038 164.016 404.728 164.026C404.208 164.026 403.658 163.886 403.168 164.186C403.108 167.486 402.978 170.786 403.238 174.076C405.708 174.466 408.188 174.166 410.658 174.236C412.248 174.286 413.838 174.236 415.418 174.246C415.838 174.246 416.368 174.186 416.348 174.816C416.278 176.906 416.638 179.006 416.148 181.086C412.128 181.066 408.108 181.066 404.098 181.016C403.378 181.016 403.058 181.136 403.088 181.956C403.168 184.226 403.158 186.496 403.178 188.766C404.148 189.116 405.158 188.916 406.148 188.916C410.058 188.946 413.968 188.916 417.868 188.936C418.378 188.936 418.928 188.776 419.408 189.106Z" fill="white"/>
<path d="M908.868 164.176C908.808 167.476 908.678 170.776 908.938 174.066C911.408 174.456 913.888 174.156 916.358 174.226C917.948 174.276 919.538 174.226 921.118 174.236C921.538 174.236 922.068 174.176 922.048 174.806C921.978 176.896 922.338 178.996 921.848 181.076C917.828 181.056 913.808 181.056 909.798 181.006C909.078 181.006 908.758 181.126 908.788 181.946C908.868 184.216 908.858 186.486 908.878 188.756C909.848 189.106 910.858 188.906 911.848 188.906C915.758 188.936 919.668 188.906 923.568 188.926C924.078 188.926 924.628 188.766 925.108 189.096C925.108 191.306 925.108 193.526 925.108 195.736C924.848 195.986 924.508 195.926 924.198 195.926C916.708 195.926 909.228 195.926 901.738 195.926C901.428 195.926 901.098 195.986 900.828 195.736C900.828 182.876 900.828 170.016 900.828 157.166C901.208 156.866 901.648 156.986 902.058 156.986C909.088 156.986 916.118 157.006 923.148 156.956C924.348 156.956 924.738 157.276 924.658 158.466C924.558 159.896 924.568 161.336 924.658 162.776C924.718 163.796 924.328 164.026 923.368 164.016C919.058 163.976 914.738 163.996 910.428 164.006C909.908 164.006 909.358 163.866 908.868 164.166V164.176Z" fill="white"/>
<path d="M965.388 156.456C968.038 156.846 970.648 157.366 973.068 158.616C973.778 158.986 974.118 159.246 973.718 160.126C973.048 161.586 972.538 163.126 971.958 164.636C971.728 165.246 971.478 165.706 970.718 165.176C969.248 164.146 967.538 163.796 965.818 163.506C964.898 163.296 963.978 163.286 963.068 163.506C961.398 163.446 960.038 164.016 959.398 165.616C958.848 166.996 959.708 168.726 961.188 169.806C963.398 171.416 965.938 172.386 968.328 173.636C972.348 175.736 975.338 178.606 976.008 183.336C976.178 184.286 976.168 185.246 976.008 186.206C974.978 192.956 970.488 195.576 964.588 196.346C964.008 196.426 963.428 196.436 962.838 196.486C962.308 196.636 961.778 196.636 961.248 196.486C957.878 196.376 954.648 195.666 951.598 194.176C950.588 193.686 950.168 193.236 950.738 191.966C951.238 190.846 951.788 189.686 952.058 188.426C952.258 187.496 952.818 186.826 954.078 187.596C956.098 188.826 958.308 189.616 960.748 189.436C961.388 189.636 962.028 189.646 962.678 189.436C964.858 189.366 966.668 188.666 967.638 186.536C967.908 185.766 967.858 184.986 967.668 184.206C966.548 181.356 963.938 180.346 961.458 179.186C957.678 177.426 953.858 175.766 952.008 171.576C951.588 170.616 951.498 169.626 951.278 168.646C951.128 167.476 951.098 166.306 951.288 165.146C951.518 161.436 954.368 158.166 958.188 157.216C959.408 156.916 960.648 156.716 961.888 156.476C963.058 156.306 964.228 156.316 965.398 156.476L965.388 156.456Z" fill="white"/>
<path d="M444.388 177.776C444.388 176.906 444.388 176.026 444.388 175.156C444.658 174.606 444.388 173.996 444.618 173.436C445.798 164.026 452.808 157.426 463.218 156.456C464.388 156.296 465.558 156.296 466.728 156.456C469.378 156.756 472.008 157.196 474.518 158.156C475.138 158.396 475.548 158.626 475.128 159.506C474.428 160.946 473.978 162.506 473.388 163.996C473.158 164.576 472.898 164.886 472.028 164.606C470.368 164.076 468.708 163.386 466.898 163.506C465.828 163.286 464.748 163.286 463.678 163.506C460.068 163.306 455.088 166.196 453.408 171.346C451.798 176.266 452.048 181.136 455.648 185.286C457.988 187.976 460.988 189.466 464.638 189.426C465.378 189.626 466.118 189.656 466.858 189.436C468.678 189.586 470.408 189.146 472.008 188.396C472.978 187.946 473.418 188.156 473.748 189.036C474.298 190.496 474.748 192.006 475.428 193.406C475.948 194.466 475.228 194.546 474.638 194.806C472.018 195.946 469.228 196.296 466.408 196.486C465.668 196.636 464.918 196.636 464.178 196.486C459.528 196.266 455.328 194.956 451.598 192.006C447.498 188.766 445.258 184.606 444.608 179.496C444.388 178.946 444.648 178.326 444.388 177.776Z" fill="white"/>
<path d="M368.908 157.176V163.816C366.928 164.246 364.928 163.886 362.938 164.006C361.528 164.096 360.098 163.816 358.698 164.166C358.668 168.306 358.618 172.436 358.618 176.576C358.618 182.946 358.638 189.316 358.648 195.686C356.138 196.236 353.598 195.856 351.078 195.886C350.268 195.896 350.548 195.096 350.548 194.626C350.528 191.596 350.538 188.566 350.538 185.536C350.538 178.946 350.538 172.356 350.538 165.766C350.538 164.586 349.928 163.996 348.708 163.996C346.368 163.996 344.028 164.006 341.688 163.986C341.188 163.986 340.618 164.216 340.188 163.746C340.188 161.576 340.188 159.396 340.188 157.226C340.518 156.806 340.978 156.986 341.378 156.986C350.198 156.976 359.028 156.986 367.848 156.986C368.208 156.986 368.598 156.896 368.918 157.166L368.908 157.176Z" fill="white"/>
<path d="M688.578 195.756C688.578 182.896 688.578 170.036 688.578 157.186C691.238 156.896 693.888 156.866 696.548 157.186C696.548 167.126 696.548 177.066 696.548 187.006C696.548 187.586 696.588 188.166 696.618 188.756C697.868 189.126 699.138 188.896 700.398 188.906C703.838 188.946 707.288 188.906 710.728 188.936C711.208 188.936 711.788 188.646 712.178 189.216C712.048 191.356 712.048 193.506 712.178 195.646C711.968 196.126 711.538 195.926 711.198 195.926C703.958 195.936 696.718 195.926 689.488 195.926C689.178 195.926 688.848 195.986 688.578 195.736V195.756Z" fill="white"/>
<path d="M871.068 157.216C871.068 170.056 871.068 182.886 871.068 195.726C868.608 196.226 866.118 195.816 863.638 195.936C863.188 195.956 862.948 195.736 862.948 195.276C862.948 194.956 862.948 194.636 862.948 194.316C862.948 182.416 862.968 170.526 862.918 158.626C862.918 157.286 863.288 156.856 864.598 156.976C866.748 157.176 868.928 156.726 871.068 157.206V157.216Z" fill="white"/>
<path d="M662.088 177.906C660.998 188.786 653.118 195.686 642.538 196.486C641.688 196.646 640.838 196.646 639.988 196.486C636.008 196.346 632.368 195.166 629.018 193.016C624.648 190.206 622.418 185.946 620.868 181.216C620.698 180.686 620.778 180.076 620.748 179.506C620.518 178.946 620.778 178.326 620.518 177.776C620.518 176.906 620.518 176.036 620.518 175.166C620.788 174.616 620.518 174.006 620.748 173.446C622.028 163.796 629.168 157.576 639.038 156.546C639.248 156.526 639.458 156.496 639.668 156.466C640.728 156.306 641.798 156.306 642.858 156.466C647.838 156.976 652.368 158.626 656.058 162.096C659.108 164.976 660.958 168.576 661.718 172.716C661.858 173.496 661.968 174.276 662.098 175.056C662.258 176.016 662.258 176.966 662.098 177.926L662.088 177.906ZM641.348 189.596C648.598 189.596 654.008 183.966 654.008 176.446C654.008 168.936 648.568 163.306 641.328 163.306C634.078 163.306 628.708 168.916 628.718 176.476C628.718 184.046 634.078 189.606 641.358 189.606L641.348 189.596Z" fill="white"/>
<path d="M776.848 177.906C775.758 188.786 767.878 195.686 757.298 196.486C756.448 196.646 755.598 196.646 754.748 196.486C750.768 196.346 747.128 195.166 743.778 193.016C739.408 190.206 737.178 185.946 735.628 181.216C735.458 180.686 735.538 180.076 735.508 179.506C735.278 178.946 735.538 178.326 735.278 177.776C735.278 176.906 735.278 176.036 735.278 175.166C735.548 174.616 735.278 174.006 735.508 173.446C736.788 163.796 743.928 157.576 753.798 156.546C754.008 156.526 754.218 156.496 754.428 156.466C755.488 156.306 756.558 156.306 757.618 156.466C762.598 156.976 767.128 158.626 770.818 162.096C773.868 164.976 775.718 168.576 776.478 172.716C776.618 173.496 776.728 174.276 776.858 175.056C777.018 176.016 777.018 176.966 776.858 177.926L776.848 177.906ZM756.128 189.596C763.388 189.576 768.778 183.946 768.768 176.426C768.748 168.916 763.308 163.286 756.068 163.306C748.818 163.326 743.458 168.936 743.468 176.496C743.478 184.066 748.858 189.626 756.128 189.606V189.596Z" fill="white"/>
</svg>
