<svg width="970" height="403" viewBox="0 0 970 403" fill="none" xmlns="http://www.w3.org/2000/svg">
<g clip-path="url(#clip0_40_75)">
<path d="M318.687 122.34L240.297 297.09H277.127L294.117 259.23H370.097L387.087 297.09H423.917L345.527 122.34H318.687ZM308.847 225.8L332.107 174.04L355.357 225.8H308.847Z" fill="#042035"/>
<path d="M557.909 191.16H482.499V122.34H448.859V297.08H482.499V224.38H557.909V297.08H591.559V122.34H557.909V191.16Z" fill="#042035"/>
<path d="M753.504 131.24C740.164 123.62 724.934 119.75 708.254 119.75C691.574 119.75 676.334 123.61 663.004 131.24C649.534 138.94 638.904 149.82 631.394 163.59C623.994 177.16 620.234 192.68 620.234 209.71C620.234 226.74 623.984 242.26 631.394 255.83C638.904 269.6 649.544 280.49 663.004 288.18C676.334 295.8 691.564 299.67 708.254 299.67C724.944 299.67 740.164 295.81 753.514 288.18C766.974 280.49 777.614 269.6 785.124 255.83C792.524 242.26 796.284 226.74 796.284 209.71C796.284 192.68 792.534 177.16 785.124 163.59C777.614 149.82 766.984 138.94 753.514 131.24H753.504ZM708.254 152.97C718.964 152.97 728.214 155.3 736.544 160.08C744.744 164.79 750.974 171.23 755.594 179.76C760.264 188.4 762.634 198.48 762.634 209.72C762.634 220.96 760.264 231.04 755.594 239.67C750.974 248.2 744.744 254.64 736.544 259.35C728.224 264.13 718.964 266.45 708.254 266.45C697.544 266.45 688.294 264.13 679.974 259.35C671.774 254.64 665.534 248.2 660.924 239.66C656.254 231.03 653.884 220.96 653.884 209.71C653.884 198.46 656.184 188.51 660.924 179.76C665.544 171.23 671.774 164.79 679.974 160.08C688.294 155.3 697.544 152.97 708.254 152.97Z" fill="#042035"/>
<path d="M929.639 122.34L883.519 193.5L837.389 122.34H797.289L866.689 228.58V297.08H900.339V228.59L969.999 122.34H929.639Z" fill="#042035"/>
<path d="M255.219 333.77H269.109V369.15H275.829V333.77H289.719V327.06H255.219V333.77Z" fill="#077EAD"/>
<path d="M363.268 351.22H385.618V344.56H363.268V333.72H386.748V327.06H356.508V369.15H387.448V362.49H363.268V351.22Z" fill="#077EAD"/>
<path d="M464.338 327.06H457.578V369.15H485.938V362.44H464.338V327.06Z" fill="#077EAD"/>
<path d="M560.19 351.22H582.54V344.56H560.19V333.72H583.67V327.06H553.43V369.15H584.37V362.49H560.19V351.22Z" fill="#077EAD"/>
<path d="M684.016 358.86C682.616 360.23 680.996 361.3 679.196 362.03C677.406 362.76 675.506 363.13 673.546 363.13C670.646 363.13 668.036 362.49 665.796 361.23C663.556 359.97 661.866 358.26 660.646 356.01C659.416 353.75 658.786 351.09 658.786 348.1C658.786 345.11 659.406 342.45 660.646 340.19C661.876 337.94 663.556 336.23 665.796 334.97C668.036 333.71 670.646 333.07 673.546 333.07C675.496 333.07 677.356 333.44 679.066 334.16C680.786 334.89 682.356 335.95 683.726 337.33L685.256 338.86L690.016 334.26L688.466 332.68C686.506 330.68 684.226 329.12 681.666 328.05C679.116 326.97 676.366 326.42 673.486 326.42C669.386 326.42 665.656 327.35 662.416 329.18C659.146 331.03 656.556 333.65 654.736 336.95C652.926 340.23 652.016 343.98 652.016 348.11C652.016 352.24 652.936 356 654.736 359.27C656.556 362.58 659.156 365.2 662.456 367.05C665.716 368.88 669.446 369.81 673.546 369.81C676.436 369.81 679.216 369.28 681.806 368.22C684.416 367.16 686.736 365.58 688.706 363.54L690.196 361.98L685.566 357.36L684.016 358.88V358.86Z" fill="#077EAD"/>
<path d="M792.489 329.18C789.279 327.34 785.609 326.41 781.569 326.41C777.529 326.41 773.859 327.34 770.649 329.18C767.409 331.03 764.859 333.65 763.049 336.96C761.269 340.24 760.359 343.99 760.359 348.11C760.359 352.23 761.269 355.99 763.049 359.26C764.859 362.57 767.409 365.19 770.649 367.04C773.859 368.88 777.529 369.81 781.569 369.81C785.609 369.81 789.279 368.88 792.489 367.04C795.729 365.19 798.279 362.58 800.089 359.26C801.879 355.98 802.779 352.23 802.779 348.11C802.779 343.99 801.869 340.24 800.089 336.96C798.279 333.65 795.729 331.04 792.489 329.19V329.18ZM781.569 363.14C778.739 363.14 776.289 362.52 774.079 361.25C771.889 359.99 770.219 358.27 768.999 356C767.759 353.72 767.139 351.06 767.139 348.11C767.139 345.16 767.769 342.5 768.999 340.22C770.229 337.94 771.889 336.23 774.079 334.97C776.289 333.7 778.749 333.08 781.569 333.08C784.389 333.08 786.879 333.72 789.059 334.97C791.249 336.23 792.909 337.95 794.149 340.22C795.379 342.5 796.009 345.16 796.009 348.11C796.009 351.06 795.379 353.72 794.149 356C792.919 358.27 791.259 359.99 789.069 361.25C786.889 362.5 784.369 363.14 781.579 363.14H781.569Z" fill="#077EAD"/>
<path d="M909.681 327.06L894.431 348.17L879.191 327.06H873.281V369.15H880.051V339.7L893.041 357.62H895.881L908.881 339.66V369.15H915.591V327.06H909.681Z" fill="#077EAD"/>
<path d="M58.3297 139.37L57.1797 128.45C98.9197 124.06 134.9 115.76 135.26 115.67L137.75 126.36C137.38 126.44 100.78 134.9 58.3397 139.36L58.3297 139.37Z" fill="#077EAD"/>
<path d="M152.616 330.4C145.156 330.4 137.906 331.45 131.016 333.47V341.37H174.216V333.47C167.326 331.45 160.076 330.4 152.616 330.4ZM131.016 101.06V105.71C138.716 109.75 147.506 112.03 156.786 112.03C162.866 112.03 168.726 111.04 174.216 109.24V101.05H131.016V101.06ZM163.236 116.07V324.5C166.966 324.96 170.636 325.69 174.216 326.63V113.84C170.686 114.92 167.016 115.68 163.236 116.08V116.07ZM131.016 110.6V326.62C134.596 325.68 138.256 324.95 141.996 324.49V114.57C138.176 113.6 134.506 112.27 131.016 110.6Z" fill="#042035"/>
<path d="M156.781 0.430176C126.001 0.430176 100.961 25.4502 100.961 56.2302C100.961 77.7202 113.161 96.4002 131.011 105.71C138.711 109.75 147.501 112.03 156.781 112.03C162.861 112.03 168.721 111.04 174.211 109.24C196.471 101.91 212.581 80.9202 212.581 56.2302C212.581 25.4502 187.531 0.430176 156.781 0.430176ZM156.781 101.05C132.041 101.05 111.931 80.9402 111.931 56.2302C111.931 31.5202 132.041 11.4102 156.781 11.4102C181.521 11.4102 201.601 31.5202 201.601 56.2302C201.601 80.9402 181.491 101.05 156.781 101.05Z" fill="#077EAD"/>
<path d="M161.616 34.4502C146.956 34.4502 135.016 46.3902 135.016 61.0802C135.016 75.7702 146.956 87.6802 161.616 87.6802C176.276 87.6802 188.216 75.7402 188.216 61.0802C188.216 46.4202 176.296 34.4502 161.616 34.4502ZM161.616 76.7102C152.986 76.7102 145.986 69.6902 145.986 61.0802C145.986 52.4702 152.986 45.4302 161.616 45.4302C170.246 45.4302 177.246 52.4502 177.246 61.0802C177.246 69.7102 170.246 76.7102 161.616 76.7102Z" fill="#042035"/>
<path d="M223.534 378.31C214.624 356.12 196.314 339.92 174.214 333.46C167.324 331.44 160.074 330.39 152.614 330.39C145.154 330.39 137.904 331.44 131.014 333.46C108.914 339.91 90.6041 356.11 81.6941 378.31L78.6641 385.86H226.564L223.534 378.31ZM95.4541 374.89C106.914 354.28 128.554 341.37 152.614 341.37C176.674 341.37 198.314 354.28 209.774 374.89H95.4541Z" fill="#077EAD"/>
<path d="M131.162 215.57C131.162 215.57 131.092 215.81 131.012 216.18C129.452 222.22 116.132 271.98 92.5323 292.59C82.8723 301.02 75.4523 302.58 67.6823 302.91C66.8923 289.39 65.3323 275.03 62.4323 261.99C61.9523 259.69 61.4023 257.42 60.8123 255.23L50.2123 258.06C50.6123 259.55 50.9823 261.07 51.3323 262.63C54.3223 275.34 55.9023 289.63 56.7123 303.13C47.7823 303.53 37.7723 305.52 26.0423 316.21C8.98234 331.77 -1.19766 353.81 0.122335 372.4C0.932335 383.64 5.74234 392.55 14.0423 398.21C18.1723 401 22.6723 402.4 27.3023 402.4C31.1423 402.4 35.0523 401.46 38.9123 399.5C54.3623 391.73 67.1423 369.34 68.0223 348.49C68.3323 340.94 68.6323 328.34 68.1723 313.85C77.2823 313.48 87.5123 311.55 99.7623 300.83C113.612 288.73 124.022 268.56 131.022 251.15C137.962 233.87 141.562 219.32 141.842 218.14L131.172 215.55L131.162 215.57ZM57.0323 348.07C56.3323 364.71 45.7723 383.78 33.9623 389.73C28.9823 392.23 24.4823 392.06 20.2023 389.14C13.3523 384.49 11.4623 377.04 11.0723 371.62C9.97234 356.28 18.7523 337.71 33.4423 324.32C42.5123 316.04 49.6823 314.44 57.2123 314.09C57.6523 328.27 57.3423 340.65 57.0323 348.07Z" fill="#042035"/>
<path d="M76.095 234.43L75.435 233.53C71.245 227.78 65.715 213.09 63.125 200.8C61.195 191.54 60.735 156.48 60.735 143.18C60.915 141.99 61.085 140.59 61.135 139.08C61.265 135.57 60.805 131.53 58.585 128.94C58.405 128.74 58.235 128.54 58.055 128.37C56.625 126.99 54.765 126.24 52.765 126.24H33.605L32.795 126.5C30.115 127.36 27.395 129.97 27.355 133.83V133.87C27.205 149.59 25.185 193.75 17.805 209.16C15.305 214.36 12.955 218.58 10.865 222.29C5.17498 232.48 0.244981 241.28 9.72498 249.11C16.155 254.42 29.545 262.57 51.345 262.63H51.565C54.685 262.63 57.975 262.48 61.425 262.1C61.755 262.06 62.105 262.03 62.455 261.99C69.455 261.18 78.525 259.22 81.485 252.51C84.475 245.73 79.645 239.19 76.105 234.42L76.095 234.43ZM60.265 251.2C36.445 253.7 22.755 245.67 16.695 240.66C14.745 239.04 14.285 238.64 20.425 227.64C22.485 223.97 25.055 219.41 27.695 213.9C36.385 195.72 37.995 149.89 38.255 137.2H50.135C50.175 138.52 50.065 140.34 49.825 141.83L49.755 142.73C49.755 144.68 49.775 190.67 52.385 203.05C54.905 214.99 60.725 231.98 66.565 239.99L67.265 240.93C68.565 242.66 71.565 246.75 71.435 248.04C71.415 248.04 69.855 250.17 60.265 251.18V251.2Z" fill="#077EAD"/>
<path d="M229.809 25.9102C227.559 25.9102 225.459 24.5202 224.649 22.2902C223.619 19.4402 225.089 16.2902 227.939 15.2602L268.079 0.750195C270.929 -0.279805 274.079 1.1902 275.109 4.0402C276.139 6.8902 274.669 10.0402 271.819 11.0702L231.679 25.5802C231.059 25.8002 230.429 25.9102 229.809 25.9102Z" fill="#042035"/>
<path d="M289.712 81.0703H241.912C238.882 81.0703 236.422 78.6103 236.422 75.5803C236.422 72.5503 238.882 70.0903 241.912 70.0903H289.712C292.742 70.0903 295.202 72.5503 295.202 75.5803C295.202 78.6103 292.742 81.0703 289.712 81.0703Z" fill="#042035"/>
<path d="M240.321 139.82C239.021 139.82 237.711 139.36 236.661 138.42L212.811 117.05C210.551 115.03 210.361 111.56 212.391 109.3C214.411 107.05 217.881 106.85 220.141 108.88L243.991 130.25C246.251 132.27 246.441 135.74 244.411 138C243.331 139.21 241.831 139.83 240.321 139.83V139.82Z" fill="#042035"/>
</g>
<defs>
<clipPath id="clip0_40_75">
<rect width="970" height="403" fill="white"/>
</clipPath>
</defs>
</svg>
