<svg width="739" height="219" viewBox="0 0 739 219" fill="none" xmlns="http://www.w3.org/2000/svg">
<g clip-path="url(#clip0_39_60)">
<path d="M277.6 53.5C273.7 53.5 271.3 55.3 270.4 59L256.3 107.6L240.9 53.5H224.3L249.4 125.9H263.7L288.4 53.5H277.6Z" fill="#005487"/>
<path d="M325.2 72.7C321.3 70.1 315.4 68.7 307.6 68.7H307.5C300.5 68.7 295.1 70.3 291.3 73.6C287.9 76.4 286 80 285.4 84.4H299.5C300.2 82.8 301.3 81.8 302.9 81.2C304.3 80.7 305.9 80.4 307.6 80.4H308.1C309.9 80.4 311.9 80.7 314.1 81.4C316.3 82 317.4 83.4 317.4 85.5C317.4 88.3 314.3 90.1 308.1 91L307.6 91.1C306.6 91.2 305.6 91.4 304.8 91.6C303.8 91.8 303 91.9 302.3 91.9C297 92.8 292.6 94.4 289.1 96.9C285.7 99.4 283.9 103.6 283.9 109.5C283.9 115.8 285.8 120.4 289.6 123.1C293.4 125.8 297.8 127.2 302.9 127.2C304.4 127.2 305.9 127.1 307.6 127C308.9 126.9 310.2 126.8 311.6 126.6C314.9 126.3 318 125.3 321 123.8C323.8 122.4 326.2 120.1 328.3 116.9C330.3 113.7 331.4 109.4 331.4 103.8V84.5C331.3 79.4 329.2 75.5 325.2 72.7ZM317.6 103C317.6 106.9 316.5 110 314.2 112.3C312.5 114 310.3 115.1 307.6 115.5C306.8 115.6 305.9 115.7 305 115.7C302.6 115.7 300.8 115.1 299.5 114C298.2 112.7 297.6 111.1 297.6 109C297.6 107.5 298.1 105.9 299.1 104.4C300.2 103.3 302.1 102.4 304.6 101.7L307.7 101L309.5 100.6C313 99.8 315.7 98.8 317.7 97.9V103H317.6Z" fill="#005487"/>
<path d="M377.6 73.5001C372.4 70.3001 366.7 68.6001 360.5 68.6001C354.5 68.9001 348.9 70.6001 344 73.9001C339 77.1001 336.5 83.5001 336.5 93.1001V126H351.2V90.2001C351.2 86.8001 352.2 84.4001 354.2 82.8001C356.2 81.3001 358.4 80.5001 360.9 80.5001C363.4 80.5001 365.7 81.3001 367.7 82.8001C369.7 84.3001 370.7 86.8001 370.7 90.2001V118.8C370.7 120.9 371.4 122.6 372.7 124C374 125.3 375.8 126 377.9 126H385.3V93.1001C385.4 83.3001 382.8 76.8001 377.6 73.5001Z" fill="#005487"/>
<path d="M445.4 86.8C448.2 85.4 450.4 83.5 451.9 81.1C453.4 78.6 454.2 75.5 454.2 71.8C454.2 66.1 452.2 61.5 448.3 58.1C444.4 55 438.7 53.5 431.2 53.5H404.7C402.6 53.5 400.8 54.2 399.3 55.7C397.8 57.2 397.1 59 397.1 61.1V126H430.2C438.6 126 445.1 124.1 449.8 120.3C454.3 116.4 456.5 110.9 456.5 103.9C456.5 99.5 455.6 96 453.8 93.4C451.9 90.5 449.1 88.3 445.4 86.8ZM411.5 66.2H428.4C432.5 66.2 435.2 66.8 436.6 67.9C438.3 69.2 439.1 71.1 439.1 73.8C439.1 76.5 438.2 78.4 436.6 79.7C434.9 80.9 432.2 81.6 428.6 81.6H411.5V66.2ZM438.2 110.6C436.1 112.1 433.1 112.9 429.1 112.9H411.4V94H428.9C433.2 94 436.3 94.7 438.1 96.1C440.1 97.6 441.1 100.1 441.1 103.5C441.2 106.8 440.2 109.2 438.2 110.6Z" fill="#005487"/>
<path d="M488.2 68.7H487.8C479.8 68.7 473.6 71.3 469.1 76.5C464.7 81.5 462.6 88.6 462.6 97.6C462.6 106.6 464.8 114.2 469.3 119.3C473.8 124.5 480 127.1 488 127.1H488.2C494.7 127.1 500.1 125.4 504.4 122.2C508.8 119.1 511.7 114.6 513.2 108.7H502.7C501 108.7 499.7 109.1 498.8 109.8C497.9 110.5 497.4 111 497.2 111.5C496.8 111.9 496.4 112.3 496 112.7C495.6 113.1 495.3 113.3 494.8 113.4C493.1 114.4 491.1 114.9 488.7 114.9H488.1C484.8 114.8 482.2 113.6 480.5 111.5C478.5 109.4 477.5 106.2 477.3 101.8H513.7C513.8 101.5 513.9 101 513.9 100.3V98C513.9 88.7 511.7 81.5 507.2 76.3C502.8 71.3 496.4 68.8 488.2 68.7ZM488.2 92.3H477.5C477.6 88.6 478.7 85.8 480.7 83.9C482.7 81.9 485.2 80.9 488.3 80.9C491.7 80.9 494.3 81.9 496.1 83.9C497.8 85.7 498.8 88.5 499.1 92.3H488.2Z" fill="#005487"/>
<path d="M527.2 53.5H519.6V126H534.3V60.5C534.3 58.5 533.6 56.9 532.2 55.6C530.9 54.2 529.2 53.5 527.2 53.5Z" fill="#005487"/>
<path d="M593 69.9H575.3L557.4 90.5V60.4C557.4 58.6 556.7 57 555.3 55.6C553.9 54.2 552.2 53.5 550.2 53.5H542.6V126H557.3V104.7C557.3 103.6 558.1 102.8 559.6 102.2C561.1 101.6 563 103.3 565.1 107L575.4 126H593.1L573 91.4L593 69.9Z" fill="#005487"/>
<path d="M635.2 72.0999C633.9 73.4999 633.2 75.1999 633.2 77.0999V105.7C633.2 109.1 632.2 111.5 630.1 113.1C628.1 114.6 625.8 115.4 623.2 115.4C620.6 115.4 618.5 114.6 616.5 113.1C614.5 111.6 613.5 109.1 613.5 105.7V69.8999H598.8V102.8C598.8 112.5 601.3 118.9 606.3 122C611.3 125.1 616.8 126.8 622.8 127.1C629 127.1 634.6 125.5 639.9 122.5C645.1 119.4 647.7 112.9 647.7 102.9V69.8999H640.3C638.3 69.8999 636.6 70.6999 635.2 72.0999Z" fill="#005487"/>
<path d="M730.7 73.5001C725.5 70.3001 719.8 68.6001 713.7 68.6001C710.6 68.8001 707.6 69.2001 704.8 70.0001C701.9 70.8001 699.4 72.1001 697.3 73.9001C694.8 71.8001 692 70.4001 688.9 69.7001C685.8 69.0001 682.7 68.6001 679.4 68.6001C673.4 68.9001 667.8 70.6001 662.9 73.9001C657.9 77.1001 655.4 83.5001 655.4 93.1001V126H670.1V90.2001C670.1 86.8001 671.1 84.4001 673 82.8001C675 81.3001 677.2 80.5001 679.8 80.5001C682.4 80.5001 684.6 81.3001 686.6 82.8001C688.7 84.3001 689.7 86.8001 689.7 90.2001V126H704.2V90.2001C704.2 86.8001 705.2 84.4001 707.3 82.8001C709.3 81.3001 711.6 80.5001 714.1 80.5001C716.6 80.5001 718.9 81.3001 720.9 82.8001C722.9 84.3001 723.9 86.8001 723.9 90.2001V118.8C723.9 120.9 724.6 122.6 725.9 124C727.2 125.3 729 126 731.1 126H738.5V93.1001C738.5 83.3001 735.9 76.8001 730.7 73.5001Z" fill="#005487"/>
<path d="M102.9 0L102.8 21.3H123.1L102.9 52.4L70.6 0H0L102.9 161.9L207.3 0H180.2L103.5 119.9L39.6 21.3H57L102.9 91.6L164.8 0H102.9Z" fill="#005487"/>
<path d="M732.7 210.2H736.7L737.5 206H733.4L732.7 210.2ZM722.9 208.3C722.9 209.5 723.6 210.2 725.2 210.2H729L729.7 206.8H728C727.5 206.8 727.2 206.6 727.2 206.2C727.2 206.1 727.3 205.8 727.3 205.5L731.4 184.4C731.5 184 731.6 183.5 731.6 183.2C731.6 181.9 730.9 181.4 729.3 181.4H725.5L724.8 184.8H726.5C727 184.8 727.2 185 727.2 185.4C727.2 185.7 727.2 185.9 727.1 186.3L723 207.4C722.9 207.7 722.9 208 722.9 208.3ZM711.9 208.3C711.9 209.5 712.6 210.2 714.2 210.2H718L718.7 206.8H717C716.5 206.8 716.2 206.6 716.2 206.2C716.2 206.1 716.3 205.8 716.3 205.5L720.4 184.4C720.5 184 720.6 183.5 720.6 183.2C720.6 181.9 719.9 181.4 718.3 181.4H714.5L713.8 184.8H715.5C716 184.8 716.2 185 716.2 185.4C716.2 185.7 716.2 185.9 716.1 186.3L712 207.4C712 207.7 711.9 208 711.9 208.3ZM692.6 204.7C692.6 200.9 698.5 200.3 701.9 200.3H702.9L702.7 201C702.2 203.3 699.3 207.7 695.7 207.7C693.8 207.6 692.6 206.5 692.6 204.7ZM688.6 205.2C688.6 208.9 691.4 210.6 694.6 210.6C699.7 210.6 702.1 206.2 702.1 206.2H702.2C702 206.9 701.8 208 701.8 208.4C701.8 209.4 702.4 210.1 704 210.1H707.5L708.2 206.7H706.5C706 206.7 705.8 206.5 705.8 206.1C705.8 205.9 705.9 205.5 706 205.2L707.5 197.2C707.7 196.3 707.7 195.6 707.7 194.8C707.7 191.3 705.5 189 700.6 189C697.4 189 693.3 189.9 692.7 192.9L692.3 194.9H696.1L696.3 193.7C696.5 192.4 698.8 192.1 700.1 192.1C702.6 192.1 703.8 193.1 703.8 195.2C703.8 195.8 703.7 196.3 703.6 196.9L703.5 197.3H702.5C695.7 197.3 688.6 199.2 688.6 205.2ZM668.1 201.5C668.1 206.8 671.6 210.6 677.7 210.6C683.1 210.6 685.9 207.7 685.9 207.7L684.8 204.6C684.8 204.6 682.3 207.1 678.2 207.1C674.1 207.1 672.2 204.5 672.2 201.1C672.2 196.3 676 192.4 680.4 192.4C682.2 192.4 684.6 193.1 684.4 194.8L684.2 195.7H687.7L688 193.9C688.7 190.1 683.6 189 680.6 189C673.8 189 668.1 194.7 668.1 201.5ZM640 197.4C641.3 194.1 644 192.1 647 192.1C649.3 192.1 651 193.5 651 196.3C651 196.9 650.9 197.4 650.9 197.4H640ZM635.1 201.9C635.1 207 638.7 210.7 644.8 210.7C649.3 210.7 652.8 208 652.8 208L651.7 204.9C651.7 204.9 648.7 207.3 645.1 207.3C641.3 207.3 639.2 204.9 639.2 201.8C639.2 201.1 639.3 200.5 639.3 200.5H654.3C654.3 200.5 655 198.5 655 196.8C655 192.4 652.5 189.2 647.2 189.2C640.2 189 635.1 195 635.1 201.9ZM609.9 210.2H613.9L615.8 200.6C616.5 196.8 620 192.7 624.1 192.7C626.6 192.7 627.3 194.1 627.3 195.8C627.3 196.5 627.2 197.1 627.1 197.8L625.2 207.3C625.1 207.6 625.1 208 625.1 208.2C625.1 209.4 625.8 210.1 627.4 210.1H631.2L631.9 206.7H630.2C629.7 206.7 629.5 206.5 629.5 206.1C629.5 206 629.5 205.7 629.6 205.4L631.2 197C631.4 196.1 631.4 195.2 631.4 194.5C631.4 190.9 629.4 188.9 625.5 188.9C621.2 188.9 618.3 191.8 617.1 193.6H617C617 193.6 617.2 192.8 617.4 191.8L618.9 184.3C619 183.9 619.1 183.4 619.1 183.1C619.1 181.8 618.4 181.3 616.8 181.3H613L612.3 184.7H614C614.5 184.7 614.7 184.9 614.7 185.3C614.7 185.5 614.6 185.9 614.6 186.2L609.9 210.2ZM598 204.5C598 209.4 602.2 210.3 604.6 210.3C605.5 210.3 606 210.2 606 210.2L606.7 206.7C606.7 206.7 606.3 206.8 605.7 206.8C604.4 206.8 602.2 206.6 602.2 203.5C602.2 203.1 602.3 202.5 602.4 202L604.2 192.7H609.2L609.8 189.5H604.9L606 183.8H602.1L601 189.5H598.2L597.5 192.7H600.2L598.3 202.5C598.1 203.2 598 203.9 598 204.5ZM564.6 201.9C564.6 196.2 568.6 192.6 572.2 192.6C575.4 192.6 576.8 195 576.8 197.9C576.8 202.4 573.6 207.4 569.2 207.4C566.4 207.2 564.6 205.2 564.6 201.9ZM560.6 202.2C560.6 207.4 563.4 210.7 568.4 210.7C571.7 210.7 574.3 208.8 575.8 206.6H575.9C575.7 207.3 575.5 208.1 575.5 208.6C575.5 209.6 576.1 210.3 577.7 210.3H581.2L581.9 206.9H580C579.5 206.9 579.3 206.7 579.3 206.3C579.3 206.1 579.3 205.8 579.4 205.4L583.5 184.5C583.6 184.1 583.7 183.6 583.7 183.3C583.7 182 583 181.5 581.4 181.5H577.6L576.9 184.9H578.6C579.1 184.9 579.3 185.1 579.3 185.5C579.3 185.8 579.3 186 579.2 186.4L578.2 191.3C578.1 192 578 192.8 578 192.8C577.1 190.4 574.6 189.2 571.9 189.2C566.1 189 560.6 194.4 560.6 202.2ZM535.3 210.2H539.3L541.2 200.6C541.9 196.8 545.4 192.7 549.5 192.7C552 192.7 552.7 194.1 552.7 195.8C552.7 196.5 552.6 197.1 552.5 197.8L550.6 207.3C550.5 207.6 550.5 208 550.5 208.2C550.5 209.4 551.2 210.1 552.8 210.1H556.6L557.3 206.7H555.6C555.1 206.7 554.9 206.5 554.9 206.1C554.9 206 554.9 205.7 555 205.4L556.6 197C556.8 196.1 556.8 195.2 556.8 194.5C556.8 190.9 554.8 188.9 550.9 188.9C546.4 188.9 543.5 192 542.3 193.8H542.2C542.4 193 542.7 191.9 542.7 191.2C542.7 190.1 542 189.4 540.5 189.4H536.7L536.1 192.8H537.7C538.2 192.8 538.5 193 538.5 193.5C538.5 193.7 538.5 194 538.4 194.3L535.3 210.2ZM514.1 201.4C514.1 196.3 518.5 192.5 522.8 192.5C526.2 192.5 528.6 194.9 528.6 198.3C528.6 203.4 524.2 207.3 519.9 207.3C516.5 207.2 514.1 204.9 514.1 201.4ZM510.1 201.6C510.1 207 514 210.7 519.6 210.7C526.3 210.7 532.7 205.3 532.7 198.1C532.7 192.8 528.8 189.1 523.2 189.1C516.3 189 510.1 194.5 510.1 201.6ZM488.2 218.7C491 218.7 493.5 217.1 495.4 214L507.5 193.7C507.9 193 508.3 192.9 509 192.9H509.5L510.2 189.5H507.7C506.1 189.5 505.2 189.9 504.3 191.6L497.7 203.2C497.1 204.3 496.6 205.7 496.6 205.7H496.5C496.5 205.7 496.4 204.3 496.2 203.2L493.8 191.6C493.5 190.2 493.1 189.5 491.8 189.5H489.1L488.4 192.9H488.9C489.6 192.9 489.9 193.1 490 193.7L493.9 210L492.4 212.3C491.3 214.1 489.9 215.3 488.3 215.3C486.5 215.3 485.4 213.9 485.3 213.8L483.6 216.6C483.7 216.7 485.5 218.7 488.2 218.7ZM470.9 197.4C472.2 194.1 474.9 192.1 477.9 192.1C480.2 192.1 481.9 193.5 481.9 196.3C481.9 196.9 481.8 197.4 481.8 197.4H470.9ZM466 201.9C466 207 469.6 210.7 475.7 210.7C480.2 210.7 483.7 208 483.7 208L482.6 204.9C482.6 204.9 479.6 207.3 476 207.3C472.2 207.3 470.1 204.9 470.1 201.8C470.1 201.1 470.2 200.5 470.2 200.5H485.2C485.2 200.5 485.9 198.5 485.9 196.8C485.9 192.4 483.4 189.2 478.1 189.2C471.1 189 466 195 466 201.9ZM447.1 202C447.1 197.1 450.4 192.5 454.7 192.5C457.6 192.5 459.4 194.5 459.4 197.8C459.4 203.7 455.4 207.2 451.8 207.2C448.6 207.2 447.1 204.9 447.1 202ZM441.6 210.2H445.4L445.7 208.5C445.9 207.6 445.9 206.9 445.9 206.9H446C447 209.5 449.5 210.7 452.3 210.7C457.9 210.7 463.5 205.4 463.5 197.6C463.5 192.4 460.7 189.1 455.8 189.1C453.1 189.1 450.4 190.6 448.9 192.7H448.8C448.8 192.7 449.1 191.8 449.3 190.8L450.5 184.5C450.6 184.1 450.7 183.6 450.7 183.3C450.7 182 450 181.5 448.4 181.5H444.6L443.9 184.9H445.5C446 184.9 446.2 185.1 446.2 185.5C446.2 185.8 446.2 186.1 446.1 186.4L441.6 210.2ZM409 218.7C411.8 218.7 414.3 217.1 416.2 214L428.3 193.7C428.7 193 429.1 192.9 429.8 192.9H430.3L431 189.5H428.5C426.9 189.5 426 189.9 425.1 191.6L418.5 203.2C417.9 204.3 417.4 205.7 417.4 205.7H417.3C417.3 205.7 417.2 204.3 417 203.2L414.6 191.6C414.3 190.2 413.9 189.5 412.6 189.5H409.9L409.2 192.9H409.7C410.4 192.9 410.7 193.1 410.8 193.7L414.7 210L413.2 212.3C412.1 214.1 410.7 215.3 409.1 215.3C407.3 215.3 406.2 213.9 406.1 213.8L404.4 216.6C404.5 216.7 406.3 218.7 409 218.7ZM390.5 204.7C390.5 200.9 396.4 200.3 399.8 200.3H400.8L400.6 201C400.1 203.3 397.2 207.7 393.6 207.7C391.7 207.6 390.5 206.5 390.5 204.7ZM386.5 205.2C386.5 208.9 389.3 210.6 392.5 210.6C397.6 210.6 400 206.2 400 206.2H400.1C399.9 206.9 399.7 208 399.7 208.4C399.7 209.4 400.3 210.1 401.9 210.1H405.4L406.1 206.7H404.4C403.9 206.7 403.7 206.5 403.7 206.1C403.7 205.9 403.8 205.5 403.9 205.2L405.5 197.2C405.7 196.3 405.7 195.6 405.7 194.8C405.7 191.3 403.5 189 398.6 189C395.4 189 391.3 189.9 390.7 192.9L390.3 194.9H394.1L394.3 193.7C394.5 192.4 396.8 192.1 398.1 192.1C400.6 192.1 401.8 193.1 401.8 195.2C401.8 195.8 401.7 196.3 401.6 196.9L401.5 197.3H400.5C393.7 197.3 386.5 199.2 386.5 205.2ZM357.7 210.2H362.2L369 196.9L370 194.7H370.1C370.1 194.7 370.1 195.9 370.3 196.9L372 210.2H376.4L385.1 193.8C385.5 193.1 385.9 193 386.5 193H387.1L387.8 189.6H385C383.2 189.6 382.6 190 381.7 191.8L375.7 204.1C375.2 205.2 374.8 206.3 374.8 206.3H374.7C374.7 206.3 374.7 205.2 374.6 204.1L373 189.7H369.3L362.1 204.1L361.1 206.3H361C361 206.3 361 205.2 360.9 204.1L359.6 191.9C359.4 190.3 358.7 189.6 357.3 189.6H354.7L354 193H354.7C355.3 193 355.6 193.2 355.7 193.8L357.7 210.2ZM322.2 201.3C322.2 196.9 324.8 192.5 329.4 192.5C332.1 192.5 334.1 193.6 334.1 196.9C334.1 201.1 331.8 206.5 327 206.5C323.9 206.5 322.2 204.5 322.2 201.3ZM318.7 213.9L316.9 217C318 217.6 320.4 218.8 324.2 218.8C329.1 218.8 334.4 216.3 335.7 209.6L338.8 193.9C338.9 193.3 339.3 193 339.9 193H341.6L342.3 189.6H338.4C336.7 189.6 335.9 190.4 335.6 191.7C335.5 192.3 335.6 192.6 335.6 192.6H335.5C335.1 190.8 332.8 189.1 329.1 189.1C322.1 189.1 318.2 195.9 318.2 201.6C318.2 206.5 321.1 210 326.1 210C328.8 210 330.9 208.7 332.5 206.6H332.6C332.6 206.6 332.3 207.4 332 208.9C331.1 213.7 327.9 215.3 324.2 215.3C320.9 215.2 318.7 213.9 318.7 213.9ZM292.9 210.2H296.9L298.8 200.6C299.5 196.8 303 192.7 307.1 192.7C309.6 192.7 310.3 194.1 310.3 195.8C310.3 196.5 310.2 197.1 310.1 197.8L308.2 207.3C308.1 207.6 308.1 208 308.1 208.2C308.1 209.4 308.8 210.1 310.4 210.1H314.2L314.9 206.7H313.2C312.7 206.7 312.5 206.5 312.5 206.1C312.5 206 312.5 205.7 312.6 205.4L314.2 197C314.4 196.1 314.4 195.2 314.4 194.5C314.4 190.9 312.4 188.9 308.5 188.9C304 188.9 301.1 192 299.9 193.8H299.8C300 193 300.3 191.9 300.3 191.2C300.3 190.1 299.6 189.4 298.1 189.4H294.3L293.7 192.8H295.3C295.8 192.8 296.1 193 296.1 193.5C296.1 193.7 296.1 194 296 194.3L292.9 210.2ZM282.2 208.3C282.2 209.5 282.9 210.2 284.4 210.2H288.2L288.9 206.8H287.2C286.7 206.8 286.5 206.6 286.5 206.2C286.5 206.1 286.5 205.8 286.6 205.5L289.1 192.6C289.2 192.1 289.3 191.7 289.3 191.4C289.3 190.1 288.6 189.6 287 189.6H283.2L282.5 193H284.2C284.7 193 284.9 193.2 284.9 193.6C284.9 193.9 284.9 194.1 284.8 194.5L282.3 207.4C282.2 207.7 282.2 208 282.2 208.3ZM286.6 185.5H290.1L290.9 181.4H287.4L286.6 185.5ZM260.6 201.4C260.6 196.3 265 192.5 269.3 192.5C272.7 192.5 275.1 194.9 275.1 198.3C275.1 203.4 270.7 207.3 266.4 207.3C262.9 207.2 260.6 204.9 260.6 201.4ZM256.5 201.6C256.5 207 260.4 210.7 266 210.7C272.7 210.7 279.1 205.3 279.1 198.1C279.1 192.8 275.2 189.1 269.6 189.1C262.8 189 256.5 194.5 256.5 201.6ZM227.5 198.4C227.5 205.7 232.4 210.6 239.3 210.6C243.8 210.6 247.3 208.5 248.7 207.1H248.8L248.5 208.3L248.1 210.2H251.6L253.8 199.3C253.9 198.8 254 198.2 254 197.9C254 196.8 253.4 196 251.6 196H247.9L247.2 199.3H249C249.6 199.3 249.8 199.5 249.8 199.9C249.8 200.1 249.8 200.4 249.7 200.8L249.3 203.1C249.3 203.1 245.6 206.9 240.3 206.9C235 206.9 231.8 203.6 231.8 198.1C231.8 190.8 237.8 184.6 244.9 184.6C249.6 184.6 252.2 187.4 252.2 187.4L254.6 184.4C254.6 184.4 251.4 180.9 245 180.9C235.1 180.9 227.5 189.2 227.5 198.4Z" fill="#005487"/>
</g>
<defs>
<clipPath id="clip0_39_60">
<rect width="738.5" height="218.8" fill="white"/>
</clipPath>
</defs>
</svg>
